<?xml version="1.0" standalone="no"?> <!DOCTYPE svg PUBLIC "-//W3C//DTD SVG 1.0//EN" "http://www.w3.org/TR/2001/REC-SVG-20010904/DTD/svg10.dtd" > <svg xmlns="http://www.w3.org/2000/svg" width="100%" height="100%">
<defs >
<font id="-id" horiz-adv-x="1024" ><font-face
    font-family="HYXiZhongYuanJ"
    units-per-em="2048"
    panose-1="2 1 6 9 0 1 1 1 1 1"
    ascent="1638"
    descent="-409"
    alphabetic="0" />
<missing-glyph horiz-adv-x="2048" />
<glyph unicode=" " glyph-name="null" />
<glyph unicode="!" glyph-name="null" horiz-adv-x="1022" d="M433 1015Q437 1045 450 1063T496 1081T545 1061T560 1014L538 53Q537 28 521 14T486 4Q474 5 461 17T448 53L433 1015ZM497 -93Q524 -94 549 -107T589 -146T603 -202T590 -255Q576 -280 551 -294T497
-309Q467 -310 442 -295T403 -256T389 -201Q389 -173 403 -147T442 -107T497 -93Z" />
<glyph unicode="&quot;" glyph-name="null" horiz-adv-x="1022" d="M340 733L335 759L327 848L309 1048Q302 1124 296 1195T284 1335T276 1434T276 1483Q280 1503 291 1514T318 1529T352 1530Q370 1526 380 1518T399 1495T407 1449Q406 1436 403 1400T398 1292L393
1166L389 957Q387 921 381 787L379 748Q378 729 371 719T354 711Q347 712 344 717T340 733ZM647 734L643 760L637 869L627 1050L621 1185L613 1317L607 1435Q605 1468 609 1485Q613 1505 625 1516T655 1531Q670 1533 687 1529T715 1516T732 1493T739 1447Q738 1418
735 1382L725 1290Q721 1249 715 1147T703 951T691 801L686 747Q684 727 678 718T662 710T649 717T647 734Z" />
<glyph unicode="#" glyph-name="null" horiz-adv-x="2048" d="M283 217V323H637L705 854H288L289 960H721L783 1401L841 1400L784 960H1350L1406 1417L1464 1418L1411 960H1755V854H1391L1320 323H1755V217H1302L1238 -241H1180L1241 218H681L620 -253L564 -254L624
217H283ZM698 323H1254L1330 854H770L698 323Z" />
<glyph unicode="$" glyph-name="null" d="M463 1304V1386Q463 1406 475 1423T505 1441T539 1427T556 1386V1307Q631 1291 681 1277T772 1235T845 1168T892 1098T925 1011T943 926Q941 901 927 884T892 867Q877 867 865 878T844 920L822 1008Q810 1041 788 1073T729
1132T636 1170L556 1186V705Q646 691 704 676T814 625T894 545T939 445T956 336T950 241T912 143T842 47T761 -9T683 -39T603 -58L556 -67V-168Q556 -185 542 -197T512 -210Q498 -211 481 -201T463 -168V-67Q411 -55 371 -45T298 -23T233 9T170 64T113 138T70 241T50
367T61 446T91 462T118 449T133 424T146 339T181 220T224 158T288 117T359 81T430 67L463 64V597Q433 606 419 611L322 636Q287 647 235 679T145 785T107 928T123 1051T176 1161T277 1251T361 1287L463 1304V1304ZM463 716V1188Q454 1186 436 1183T387 1171T316
1142T239 1071T202 952T223 850T281 787T354 743T417 723L463 716V716ZM556 589V61Q577 63 606 67T667 82T742 117T823 195T860 317T847 413T819 468T781 514T716 549T641 576T581 588L556 589V589Z" />
<glyph unicode="%" glyph-name="null" horiz-adv-x="2048" d="M1700 1357L1731 1392Q1761 1426 1776 1434T1807 1442Q1832 1441 1848 1425T1865 1379T1844 1331L1809 1300Q1787 1280 1731 1221T1429 927T851 360T453 -35T348 -138L270 -211Q238 -241 206 -214T174
-164T188 -126L237 -75Q274 -36 397 82T651 330T835 512T1422 1082L1588 1243Q1665 1317 1700 1357ZM210 929Q189 1010 195 1082T231 1218T314 1335T423 1416T527 1452T616 1461Q710 1461 781 1432T900 1356T979 1259T1030 1125T1023 935Q1008 881 980 830T902
731T774 649T612 614Q548 613 478 636T348 709T255 819T210 929ZM614 722Q745 728 814 795T907 925T929 1048Q926 1177 864 1241T746 1331T619 1357Q540 1357 473 1324T359 1231T302 1105T303 983Q315 925 342 883T406 806T502 745T614 722ZM1034 69Q1013 149 1019
222T1055 358T1139 475T1248 556T1351 592T1441 601Q1535 601 1605 572T1724 495T1803 398T1855 265T1848 74Q1833 21 1804 -29T1726 -129T1599 -211T1437 -245Q1372 -246 1302 -223T1173 -150T1080 -40T1034 69ZM1438 -137Q1570 -131 1639 -65T1731 65T1754 187Q1751
316 1689 380T1570 470T1444 497Q1366 497 1298 463T1184 371T1127 246T1127 124Q1138 67 1166 24T1230 -53T1327 -114T1438 -137Z" />
<glyph unicode="&amp;" glyph-name="null" horiz-adv-x="1600" d="M471 747Q432 846 414 914T396 1058Q396 1171 441 1248T568 1374T743 1422Q821 1421 880 1387T973 1294T1007 1151T967 984Q932 915 867 854T724 754L613 696Q650 620 667 590T742 473T815 368L883
288Q916 328 938 357T1005 454T1076 576T1135 704T1183 811T1218 857T1265 861T1300 827T1293 768T1243 653T1161 489T1082 356L970 190Q1021 143 1061 110T1147 60T1234 48Q1296 56 1333 97T1397 187T1446 245T1493 240T1519 207T1518 173Q1512 151 1488 106T1429
22T1348 -45T1223 -73Q1173 -74 1116 -57T1016 -1L880 106Q812 61 746 22T586 -47T394 -73Q295 -70 221 -30T106 84T62 240T90 400Q119 474 177 536T332 659L471 747V747ZM799 197Q722 296 698 332T589 509L511 639Q419 591 372 556T278 467T204 356T184 237Q190
186 228 136T335 61T501 52Q614 70 662 106L799 197V197ZM573 801Q621 824 671 850T771 919T856 1024T886 1155Q882 1210 857 1241T785 1291T680 1297Q618 1283 577 1238T523 1139T515 1024Q520 939 548 871T573 801Z" />
<glyph unicode="&apos;" glyph-name="null" horiz-adv-x="1022" d="M474 734L471 760L465 869L454 1050L448 1185L441 1317L435 1435Q434 1468 437 1485Q441 1505 453 1516T483 1531Q497 1533 514 1529T542 1516T560 1494T566 1447Q564 1411 562 1382L552 1290Q548
1253 544 1177T531 970T519 801L514 747Q512 728 505 719T488 711Q480 712 477 717T474 734Z" />
<glyph unicode="(" glyph-name="null" d="M162 591V599Q162 599 162 606T164 656T178 780T222 939T283 1064T349 1161T414 1242T491 1317T579 1388T675 1445T760 1483T807 1487T833 1465T835 1433T812 1403T710 1338T585 1256T481 1152T391 1038T339 933T297 806T279
678L277 618L276 595Q276 580 277 573L279 512Q282 448 296 384T339 257T391 152T480 39T592 -70T718 -153T812 -212T833 -241T833 -273T807 -295T761 -293T674 -254T580 -199T492 -127T414 -52T350 29T283 127T223 250T178 411T163 569L162 591V591Z" />
<glyph unicode=")" glyph-name="null" d="M832 591Q831 576 829 534T815 410T771 250T711 126T644 29T580 -51T502 -126T412 -199T318 -254T233 -292T187 -295T162 -274T162 -238Q166 -226 181 -213T278 -152T404 -68T513 38T602 152T655 257T696 380T713 496T718
573V595Q718 610 718 626T713 696T696 810T655 932T603 1037T513 1152T414 1251T289 1334T182 1403T160 1432T161 1464T187 1486T233 1483T317 1447T413 1389T501 1318T579 1242T644 1162T709 1065T771 940T815 779T831 622L832 599H833V591H832Z" />
<glyph unicode="*" glyph-name="null" d="M466 620Q357 655 285 669T188 701T151 741T139 787T147 824Q156 839 174 846T211 854Q237 853 261 841T321 796L397 723L486 644Q481 703 476 728T446 827T422 951Q422 990 433 1011T462 1042T505 1052Q523 1050 538
1041T568 1007T584 951T570 869Q539 766 536 742L520 641Q598 710 635 747L695 808Q725 838 745 847T788 857Q811 856 830 845T860 816T871 779T857 738Q841 717 797 695T686 656L530 614Q579 597 613 586T701 559T777 534T822 510T854 473T857 423T825 382T765
376Q731 382 709 400T657 453T622 494L525 589Q533 498 543 455L565 367Q574 325 575 288T570 230Q562 208 545 193T506 177Q485 175 464 188T431 218T419 270T424 334Q426 345 445 401T473 504L491 598Q440 550 416 526L354 462Q323 431 298 411T252 382T214 373Q188
373 168 389T142 439T169 509Q178 519 193 528T298 568L466 620V620Z" />
<glyph unicode="+" glyph-name="null" horiz-adv-x="1442" d="M670 656V1226H756V656H1328V570H756V-1H670V570H100V656H670Z" />
<glyph unicode="," glyph-name="null" horiz-adv-x="1025" d="M369 -251L393 -235Q402 -229 427 -207T470 -163L500 -123Q520 -96 520 -82T514 -59Q506 -52 479 -52T423 -47T369 -6T349 82Q354 135 391 172T496 209T606 154T648 36T632 -72Q616 -114 580 -166T511
-247T447 -293T395 -312T366 -304T358 -276T369 -251Z" />
<glyph unicode="-" glyph-name="null" horiz-adv-x="1444" d="M99 653H1327V567H99V653Z" />
<glyph unicode="." glyph-name="null" d="M485 163Q514 163 543 147T589 102T607 41Q606 10 590 -19T546 -64T485 -79Q451 -79 424 -63T380 -19T364 41T380 102Q396 131 425 146T485 163Z" />
<glyph unicode="/" glyph-name="null" horiz-adv-x="1291" d="M97 -137L1114 1395Q1132 1432 1149 1441T1189 1442T1201 1419L1174 1358L162 -165Q141 -197 122 -209T83 -211T77 -180L97 -137V-137Z" />
<glyph unicode="0" glyph-name="null" d="M147 627Q147 721 153 798T169 933T201 1048T255 1159T324 1245T409 1295T513 1314Q553 1314 594 1302T688 1247T771 1139T816 1007T841 870T853 689T851 487Q845 406 832 322T796 171T740 56T669 -21T590 -64T498 -78Q433
-79 394 -61T319 -14T248 77T192 202T162 325T150 488T147 627ZM255 491Q256 428 261 383T284 263T323 147T374 81T435 43T500 30Q535 30 572 49T653 124T716 308T737 486T740 629T740 763Q735 839 708 977T628 1156T510 1198T395 1157Q356 1124 327 1057T288 939T267
795T254 647T255 491Z" />
<glyph unicode="1" glyph-name="null" d="M223 845Q210 830 194 821T158 823T132 862T145 914L419 1252Q447 1287 473 1305T530 1315Q551 1308 566 1283T581 1225V-38Q581 -91 528 -91T475 -38L476 1049V1084L479 1123Q478 1136 473 1139T463 1139T436 1109L223 845Z" />
<glyph unicode="2" glyph-name="null" d="M678 619Q603 566 546 521T437 416T366 311T322 189T303 94Q308 72 324 63T377 53H811Q841 53 857 35T874 -3Q873 -24 856 -42T810 -60L374 -61Q307 -62 271 -53T220 -30T198 16T194 97Q198 162 214 224T268 359T349 482T497
618T642 736T707 811T744 887T755 965Q754 1021 735 1064T687 1136T617 1182T527 1200Q486 1199 443 1184T366 1135T315 1063T295 989L288 886Q279 860 259 848T218 843T186 874T178 943Q182 1020 206 1094T278 1213T375 1280T486 1309Q556 1316 625 1299T739 1245T813
1162T855 1065T868 955T845 832Q818 762 779 717T678 619Z" />
<glyph unicode="3" glyph-name="null" d="M270 317L302 196Q317 136 376 92T497 43Q543 39 587 57T665 108T725 196T753 312T741 420Q720 489 680 529T587 586T507 605T479 606L343 601Q316 600 300 616T284 654Q284 676 297 688T325 705T383 710L481 709Q520
708 546 716T606 744T683 806T725 962T655 1140T499 1205Q431 1204 374 1163T298 1051L276 962Q269 947 260 940T226 933T187 948T169 994T197 1093Q216 1135 233 1165T289 1233T385 1292T502 1313Q563 1312 626 1289T736 1220T809 1113T835 967Q834 917 823 875T792
796T754 738T696 695T661 664Q663 659 672 653L728 622Q775 594 809 539T852 435T861 336Q860 271 850 224T814 124T759 41T686 -15T595 -54T506 -67Q438 -68 378 -43T271 28T199 126T165 215T157 280Q159 313 175 329T214 346Q224 346 244 339T270 317Z" />
<glyph unicode="4" glyph-name="null" d="M64 357L433 1094Q493 1215 517 1250T565 1300T624 1308Q665 1298 675 1274T686 1179V351H782Q803 351 816 335T827 296Q825 282 814 265T782 247H686V-16Q686 -81 634 -74T582 -21V247L240 248L148 247Q97 250 78 271Q56
295 60 322L64 357V357ZM582 351V1156L209 414Q191 379 192 370T198 356T295 351H582Z" />
<glyph unicode="5" glyph-name="null" d="M876 475Q875 406 871 353T846 230T793 100T712 2T609 -54T502 -71Q436 -72 370 -47T259 21T199 97T165 179T147 269T162 329T203 349Q216 348 231 339T251 317T264 262T294 174T354 97T426 53T501 41Q556 41 594 61T664
113T726 216T757 421Q756 505 738 580T685 693T614 749T523 768Q463 766 408 734T336 674T293 593T251 530T215 524Q195 527 182 542T167 570T166 600L186 1178Q187 1210 199 1240T228 1288T271 1310T387 1316H769Q794 1316 811 1296T826 1251Q823 1230 807 1215T770
1199H439Q351 1199 334 1197T306 1183T292 1157T286 1079L275 874Q270 797 274 775T287 754Q290 754 299 761L340 804Q356 820 381 836T446 862T528 874Q582 874 641 855T742 800T815 704T854 601L876 475V475Z" />
<glyph unicode="6" glyph-name="null" d="M166 600Q166 733 172 811T195 967T240 1104T298 1201T371 1260T454 1295T544 1308Q616 1307 673 1279T767 1216T835 1120T867 977T850 882T808 868Q783 868 767 881T748 973T728 1087T684 1146T625 1185T552 1202Q511
1203 472 1191T395 1151T333 1077T297 966T274 831T266 691T268 614T269 603T275 600T286 605L322 669Q334 690 370 718T456 765T565 782Q612 780 657 762T738 711T802 633T852 525T876 353T834 141Q801 65 760 26T669 -40T546 -71Q490 -75 446 -63T363 -31T284
33T220 142T184 279T169 425T166 600ZM525 38Q623 49 667 91T739 194T767 370Q766 440 750 510T682 630T546 680T389 620Q326 566 305 497T288 346Q290 295 304 222T359 101T453 44T525 38Z" />
<glyph unicode="7" glyph-name="null" d="M822 995L344 -40Q330 -71 303 -70T259 -57T239 -27T244 10L768 1146Q782 1178 780 1190T754 1202H238Q201 1202 185 1221T168 1258T186 1294T238 1312H697Q819 1312 834 1309T861 1301T883 1286T900 1258T908 1211T898
1162L822 995Z" />
<glyph unicode="8" glyph-name="null" d="M130 313Q138 424 156 466T196 536T255 589T317 634L339 649Q282 678 249 705T185 798T154 938T175 1078Q204 1164 251 1209T356 1282T499 1312Q561 1312 623 1290T736 1219T817 1098T846 937T801 774Q785 748 765 728L680
657L662 641Q716 609 745 586T801 525T844 432T859 309Q857 266 844 212T802 106T739 22T642 -41T491 -72Q412 -72 350 -45T231 35T154 156T130 313ZM479 37Q514 33 564 42T666 103T733 224T749 335Q748 393 728 444T672 528T594 576T504 592Q447 591 398 570T313
510T257 407T243 284Q249 187 291 137T376 64T479 37ZM495 701Q578 701 631 744T708 843T732 981T669 1132Q646 1155 604 1177T496 1199Q447 1198 404 1181T310 1107T266 934Q269 875 293 827T363 739T495 701Z" />
<glyph unicode="9" glyph-name="null" d="M698 309Q711 355 722 405T737 560Q737 585 737 591L734 629Q706 583 682 554T624 503T550 467T458 451Q411 450 374 462T304 493T237 544T183 616T146 726T128 865T138 985Q146 1031 162 1073T201 1157T263 1234T360
1292T486 1312Q543 1309 591 1289T684 1233T763 1138T814 1011T837 836T843 624Q841 549 834 471T816 339T792 232T754 130T700 41T634 -22T555 -62T458 -77Q404 -77 350 -59T252 -9T189 54T147 141T128 265Q129 305 145 324T189 344T230 335T247 305Q249 293 247
242T264 148Q280 111 308 88T372 52T446 39Q485 38 518 50T588 88T651 167T698 309ZM443 555Q534 550 603 607T695 726T723 918T640 1125T476 1203Q418 1203 369 1171T275 1059T236 847Q243 677 317 617T443 555Z" />
<glyph unicode=":" glyph-name="null" d="M498 612Q533 612 571 592T629 537T650 460Q649 418 629 383T574 328T498 308Q457 308 422 328T367 383T347 459T367 536Q387 572 424 591T498 612ZM498 116Q533 116 571 96T629 41T650 -35Q649 -77 629 -112T574 -167T498
-187Q457 -187 422 -167T367 -112T347 -36T367 40Q387 76 424 95T498 116Z" />
<glyph unicode=";" glyph-name="null" horiz-adv-x="1022" d="M382 -248L406 -231Q406 -231 431 -210L463 -184Q475 -173 495 -146T516 -105T511 -83Q506 -79 457 -84T379 -44T349 53T389 143T494 183Q561 181 605 135T651 18T632 -106Q615 -149 589 -183T526
-247T459 -291T409 -308T380 -300T372 -272T382 -248ZM500 615Q537 615 573 596T630 540T651 462T632 387Q611 352 576 332T500 312Q460 312 425 332T369 386T349 463Q349 503 369 539T426 595T500 615Z" />
<glyph unicode="&lt;" glyph-name="null" horiz-adv-x="1562" d="M102 665L1453 1290V1187L210 614L1452 40V-57L102 557V665Z" />
<glyph unicode="=" glyph-name="null" horiz-adv-x="1448" d="M99 481H1327V395H99V481ZM99 842H1327V756H99V842Z" />
<glyph unicode="&gt;" glyph-name="null" horiz-adv-x="1578" d="M1455 663V555L104 -59V39L1347 612L104 1185V1288L1455 663Z" />
<glyph unicode="?" glyph-name="null" horiz-adv-x="1363" d="M714 203V77Q714 48 695 28T654 9Q633 9 614 28T595 76L594 226Q593 287 608 330T653 410T727 466T853 505T983 542T1068 583T1122 629T1147 678T1155 737Q1152 801 1123 836T1052 895T945 939T784
965T630 971Q517 968 413 939T252 847T194 717T237 599Q268 561 309 545T375 524L483 509Q507 501 519 488T531 450T515 409T456 391Q376 387 289 425T156 508T91 603T71 702T80 788Q97 857 142 910T263 1005T417 1065T572 1088T739 1091Q809 1087 894 1074T1064
1025T1199 935T1266 828T1281 731Q1280 698 1270 653T1223 559T1137 480T1021 429L892 395Q783 365 749 320T714 203ZM544 -198Q550 -146 579 -115T656 -83Q701 -84 734 -117T767 -196T733 -275T652 -309Q612 -309 578 -278T544 -223T544 -198Z" />
<glyph unicode="@" glyph-name="null" horiz-adv-x="2001" d="M1363 1061L1400 1129H1528Q1503 1047 1482 978T1447 852L1336 416Q1311 320 1311 284T1331 231T1397 217Q1459 221 1511 256T1619 364T1695 474T1742 573T1777 692T1790 838T1752 1035Q1721 1115
1647 1207T1487 1340T1349 1395T1241 1417T1125 1430Q1058 1433 993 1429T869 1412T742 1375T602 1302T465 1194T345 1051T262 901T218 761T199 604T207 450Q218 379 256 281T368 96T534 -47T703 -133T861 -173T1021 -183Q1122 -183 1198 -171T1343 -138T1472 -85T1619
9T1728 97L1779 156H1895Q1839 85 1795 38T1673 -68T1517 -166T1316 -239T1056 -275Q985 -277 873 -266T691 -230T558 -174T446 -107T337 -13T237 107T176 224T135 347T111 490T105 623Q107 702 126 783T194 966T317 1161T470 1315T599 1403T704 1450T825 1487T964
1510T1090 1517Q1172 1515 1262 1498T1419 1456T1561 1385T1678 1295T1764 1192T1830 1074T1866 950T1880 812Q1879 743 1861 650T1801 473T1710 326T1602 215T1480 136T1363 102Q1314 98 1269 117T1214 167L1184 231Q1135 190 1069 146T890 102Q815 101 736 134T616
207T543 304T500 410T490 516Q491 597 511 674T552 796T593 878T671 984T800 1099T944 1167T1100 1189Q1160 1187 1197 1175T1272 1142T1319 1111L1363 1061V1061ZM1312 902Q1309 945 1287 992T1214 1080T1079 1123Q1004 1124 933 1089T803 997T703 869T639 717T613
539T629 377Q647 315 686 268T786 193T924 180Q992 192 1045 236T1135 332T1195 436T1230 529T1270 680T1306 836T1312 902Z" />
<glyph unicode="A" glyph-name="null" horiz-adv-x="1475" d="M1119 318H355L197 -24Q189 -41 175 -50T140 -61T102 -43T83 -8T87 23L611 1222Q655 1324 682 1343T738 1364Q761 1364 788 1347T830 1299L1362 76Q1388 15 1386 -6T1366 -43T1324 -59Q1304 -59 1288
-47T1255 5L1119 318ZM402 435H1078L1050 494L769 1154Q748 1201 738 1200T716 1171L402 435Z" />
<glyph unicode="B" glyph-name="null" horiz-adv-x="1332" d="M779 1315Q914 1311 971 1289T1079 1221T1156 1112T1182 979T1170 858Q1156 804 1129 766T1057 700L1003 665Q1031 653 1052 642T1116 591T1187 482T1215 331T1177 166Q1146 98 1095 47T970 -34T738
-63L443 -60Q195 -58 171 -53T122 -27T88 23T78 185V1135Q78 1198 88 1234T131 1292T220 1315H779ZM192 608V154Q192 93 210 75T274 57H752Q845 57 905 77T1005 134T1070 222T1095 335Q1093 386 1070 436T1018 521T967 568T886 594T796 609L192 608ZM192 720H755Q821
720 886 741T987 796T1044 874T1065 969Q1064 1024 1042 1066T990 1136T909 1183T785 1203H280Q232 1203 212 1188T192 1116V720Z" />
<glyph unicode="C" glyph-name="null" horiz-adv-x="1386" d="M1109 300L1141 407Q1147 429 1164 442T1200 455Q1223 454 1241 435T1261 394T1253 340Q1235 281 1210 220T1107 82T917 -41T681 -88Q590 -89 495 -60T319 31T188 168T108 332T70 484T62 633Q64 737
83 828T140 1002T264 1168T460 1294T677 1341Q740 1343 809 1330T971 1272T1106 1179T1212 1026T1263 846Q1258 817 1243 801T1201 784T1161 796Q1151 803 1144 820L1118 933Q1105 979 1067 1031T948 1149T696 1216Q529 1216 412 1129T253 950T196 795T179 622T204
413Q226 334 261 276T327 187T423 114T555 55T684 39Q791 38 862 68T1007 155T1109 300Z" />
<glyph unicode="D" glyph-name="null" horiz-adv-x="1298" d="M616 -54L228 -52Q180 -52 150 -38T102 0T80 45T75 140V1054Q75 1217 79 1240T113 1295T205 1328H623Q709 1328 785 1311T953 1242T1108 1079T1186 904T1207 789T1214 661T1205 492Q1188 358 1146
268T1027 102T874 -3T736 -43T616 -54ZM628 1211H287Q253 1211 230 1207T200 1196T191 1176L192 1112V206Q192 118 193 108T204 83T247 69L613 70Q710 70 779 94T907 162T989 244T1030 320T1061 403T1085 529T1090 720Q1082 839 1050 926T917 1112T628 1211Z" />
<glyph unicode="E" glyph-name="null" horiz-adv-x="1267" d="M217 700H1004Q1036 700 1055 679T1072 632Q1069 613 1051 597T1004 580H217V195Q217 111 218 96T234 67T278 53H1067Q1088 53 1103 36T1118 -5T1103 -47T1067 -66L269 -67Q172 -68 136 -31T100 78V1093Q100
1183 103 1209T138 1267T234 1300H1042Q1072 1300 1091 1276T1102 1222Q1097 1206 1082 1192T1041 1178L282 1179Q245 1179 231 1163T217 1107V700Z" />
<glyph unicode="F" glyph-name="null" horiz-adv-x="1251" d="M221 1Q214 -27 202 -40T161 -52Q139 -52 123 -38T107 4V1116Q107 1214 113 1238T144 1288T192 1318T249 1323H1043Q1076 1323 1093 1303T1111 1264T1095 1226T1043 1208L376 1209Q272 1209 256 1203T230
1181T221 1134L222 872L221 760Q221 733 230 725T268 716H1002Q1030 716 1045 695T1057 651Q1053 631 1039 618T1002 605H358Q275 605 255 604T228 598T221 553V1Z" />
<glyph unicode="G" glyph-name="null" horiz-adv-x="1389" d="M1109 579L718 580Q696 580 679 593T657 630T667 675T721 697H1100Q1162 697 1194 691T1243 669T1267 622T1275 550Q1274 478 1259 399T1206 247T1095 102T929 -11T732 -58Q607 -67 520 -37T378 23T260
119T161 255T104 405T80 547T79 670Q82 745 89 798T109 910T161 1040T250 1164T354 1253T503 1321T694 1354Q749 1353 830 1336T980 1278T1112 1173T1216 1021T1253 894Q1249 869 1234 851T1193 833Q1174 832 1160 842T1128 911T1075 1024T976 1132T853 1210T696
1235Q603 1234 522 1207T372 1119T271 1001T218 876T192 753T187 632Q187 592 192 539T218 412T280 283T367 183T457 115T557 77T677 66Q797 68 885 109T1034 212T1118 330T1152 444T1161 526Q1159 552 1147 565T1109 579Z" />
<glyph unicode="H" glyph-name="null" horiz-adv-x="1259" d="M94 1260Q105 1293 118 1304T157 1316T199 1302T216 1260V714H1032V1257Q1032 1283 1051 1300T1095 1317Q1113 1316 1133 1300T1153 1257V-19Q1153 -48 1132 -67T1082 -82Q1059 -79 1046 -61T1032
-19V588H216V-17Q216 -45 196 -62T151 -77Q124 -76 109 -58T94 -17V1260Z" />
<glyph unicode="I" glyph-name="null" horiz-adv-x="428" d="M258 -12Q251 -32 242 -42T206 -53Q186 -54 165 -41T144 -4V1270L165 1314L201 1325L233 1314L258 1270V-12Z" />
<glyph unicode="J" glyph-name="null" horiz-adv-x="1275" d="M1011 1266Q1012 1292 1022 1309T1060 1330T1109 1312T1129 1266V537Q1129 359 1091 253T973 72T793 -41T614 -81Q514 -85 424 -46T260 67T147 229T106 427T127 555T174 573T215 555T232 523L230 412Q229
375 237 336T281 243T357 147T462 74T607 43Q676 43 757 74T878 148T948 243T994 345T1011 534V1266Z" />
<glyph unicode="K" glyph-name="null" horiz-adv-x="1310" d="M113 1290Q123 1327 138 1338T181 1345Q199 1341 212 1328T227 1290L229 -1Q229 -31 210 -45T167 -58Q145 -57 129 -42T113 0V1290ZM1016 1315Q1049 1334 1077 1333T1113 1311T1116 1269T1095 1235L509
768L418 692Q395 675 393 664T404 640T442 608L1139 51Q1190 9 1148 -38T1049 -39L499 413Q315 564 292 595T269 661T283 717T330 764L1016 1315Z" />
<glyph unicode="L" glyph-name="null" horiz-adv-x="1284" d="M241 182Q239 130 244 106T259 69T315 58T490 60L1098 58Q1123 57 1138 37T1154 0T1140 -42T1101 -66H265Q218 -66 198 -60T159 -37T132 10T122 103L119 207L118 1249Q118 1281 141 1294T184 1308T222
1297T240 1249L241 182Z" />
<glyph unicode="M" glyph-name="null" horiz-adv-x="1665" d="M359 1155L687 386L753 217L785 131Q793 113 798 113T814 126T836 164L1065 696L1295 1201L1328 1274Q1346 1306 1370 1322T1432 1338T1498 1312Q1515 1294 1521 1273T1528 1209L1527 -11Q1526 -66
1465 -66T1404 -14V932L1407 986L1417 1111Q1422 1178 1420 1178T1413 1179T1403 1174L1387 1132L1316 964L1122 542L926 105Q876 -4 865 -20T839 -46T803 -55Q775 -56 760 -45T737 -24T686 88L426 695L308 978L247 1162Q244 1169 237 1169T226 1164T223 1148T225
1124L227 1052V987V-3Q227 -35 210 -50T168 -66T128 -52T113 -3V1096Q113 1174 115 1214T127 1277T155 1320T214 1339Q241 1338 266 1323T308 1270L359 1155Z" />
<glyph unicode="N" glyph-name="null" horiz-adv-x="1326" d="M738 387L283 1131L256 1178Q247 1184 244 1182T240 1175T240 1146L242 923L243 -7Q243 -59 181 -59T119 -7V963Q119 1212 125 1247T139 1296T160 1320T188 1336T222 1340T271 1329T337 1263L403 1158L1010
158L1043 102Q1052 89 1055 91T1060 97T1062 241V1284Q1062 1317 1080 1330T1125 1341Q1149 1339 1166 1325T1183 1284V124Q1183 48 1175 21T1137 -34T1073 -62T1005 -31T930 73L738 387Z" />
<glyph unicode="O" glyph-name="null" horiz-adv-x="1434" d="M104 560Q103 579 104 660T120 838T189 1045T338 1224T528 1326T726 1359Q833 1359 927 1325T1122 1203T1258 1023T1308 860T1327 719T1328 589Q1325 564 1317 509T1296 390T1229 230T1094 66T905
-41T685 -76Q611 -74 544 -53T409 7T272 117T173 262T126 400T104 560ZM223 601Q226 521 238 461T279 330T381 184T542 76T718 45Q809 45 879 75T1025 172T1134 311T1183 443T1202 566T1205 694Q1202 743 1192 809T1156 949T1058 1095T901 1204T714 1240Q619 1238
539 1205T392 1113T293 984T243 828T223 691T223 601Z" />
<glyph unicode="P" glyph-name="null" horiz-adv-x="1390" d="M222 553V1Q222 -24 201 -39T159 -52Q140 -51 122 -37T104 1V1160Q104 1248 116 1271T142 1305T187 1324T260 1333L819 1334Q902 1334 976 1322T1094 1284T1176 1217T1243 1111T1272 959T1251 812Q1231
760 1183 701T1077 615T925 570T757 553H222ZM222 681L759 682Q877 682 961 704T1077 757T1129 841T1153 959T1139 1066Q1124 1099 1086 1134T988 1192T839 1216L325 1217Q269 1217 258 1213T240 1204T227 1189T222 1170V681Z" />
<glyph unicode="Q" glyph-name="null" horiz-adv-x="1425" d="M573 -58Q525 -60 501 -68T411 -105T312 -155T259 -172Q241 -170 226 -156T211 -118T221 -79Q231 -64 276 -40T356 -7T399 7T407 16T397 30L305 78Q266 100 226 155T153 272T98 408T75 577T79 748Q85
825 101 889T170 1055T312 1221T490 1317T682 1351Q788 1352 882 1320T1064 1223T1191 1083T1250 953T1280 831T1293 683T1286 540Q1280 500 1266 442T1237 338T1189 236T1106 128T1014 55T933 17T864 -5T821 -17T809 -28T818 -41L920 -96L987 -140Q1005 -151 1039
-163T1100 -180Q1134 -186 1186 -178T1253 -172Q1268 -175 1282 -186T1296 -230Q1294 -256 1277 -274T1218 -299T1149 -305Q1125 -306 1088 -302T1020 -290T950 -260T871 -207L780 -136Q765 -126 727 -103T661 -69T573 -58ZM193 552Q199 447 237 361T342 209T486
107T671 69Q761 67 833 93T974 172T1079 287T1125 378T1149 465T1172 571T1171 742Q1164 820 1149 884T1103 1000T1021 1101T880 1192T680 1233Q580 1232 496 1196T358 1109T271 1000T221 884T201 792T195 650L193 552V552Z" />
<glyph unicode="R" glyph-name="null" horiz-adv-x="1347" d="M208 593V-3Q208 -28 189 -42T148 -56Q129 -56 111 -42T93 -3V1117Q93 1195 95 1225T131 1291T243 1327L703 1328Q901 1328 964 1309T1065 1268T1144 1202T1209 1092T1233 967Q1232 906 1214 859T1177
781T1133 728T1082 691T1035 669T1002 655T990 638Q990 631 1013 619T1051 594T1080 553T1104 500T1122 435L1144 307L1164 210Q1174 157 1180 132T1215 59T1241 -6Q1236 -24 1215 -42T1176 -61Q1158 -62 1133 -46T1088 26T1055 132T1032 256L1014 381Q1003 443
986 479T941 539T879 578T795 593H208ZM208 711H759Q825 711 876 719T978 753T1057 816T1100 891T1115 965Q1114 1001 1095 1049T1046 1128T984 1174T918 1201T824 1211H342Q283 1211 261 1210T223 1193T208 1139V711Z" />
<glyph unicode="S" glyph-name="null" horiz-adv-x="1310" d="M80 384V400Q80 435 97 452T145 469Q168 467 181 455T201 418L221 322Q242 220 317 155T480 66T688 42Q750 41 842 54T1006 145T1079 298T1049 425Q1018 475 971 503T868 552T778 581T590 618T353
677T229 761T170 873T152 993T171 1109Q191 1162 247 1218T415 1310T652 1345Q740 1344 865 1316T1057 1220T1160 1083T1193 955Q1191 930 1181 917T1156 899T1126 894T1098 906Q1089 912 1083 926L1053 1022Q1029 1090 971 1135T871 1196T771 1220T640 1230Q541
1229 458 1206T321 1128T267 988T313 848Q355 797 425 776T629 730T898 675T1118 541T1202 311Q1201 208 1162 148T1077 49T990 -11T895 -49T797 -71T705 -78Q597 -82 531 -69T390 -29T253 46T155 155T108 252L99 289Q80 366 80 384Z" />
<glyph unicode="T" glyph-name="null" horiz-adv-x="1335" d="M589 1203H150Q120 1203 104 1219T85 1255T100 1297T149 1319L1185 1317Q1208 1316 1221 1298T1234 1260Q1233 1239 1220 1221T1185 1203H707V-16Q707 -41 686 -53T645 -66T605 -52T586 -17L589 1203Z" />
<glyph unicode="U" glyph-name="null" horiz-adv-x="1255" d="M88 500L90 1276Q90 1333 147 1337T205 1276V567Q205 439 227 361T275 238T362 144T485 75T620 56Q711 58 776 89T889 165T964 250T1008 350T1026 578V1284Q1026 1340 1087 1345T1149 1285V493Q1149
352 1104 251T1000 93T878 1T749 -52T613 -69Q509 -69 433 -38T289 44T174 166T120 294L88 500V500Z" />
<glyph unicode="V" glyph-name="null" horiz-adv-x="1392" d="M348 896L473 570L603 221L646 101Q654 82 659 82T669 89T693 146L896 665L1033 1006L1128 1268L1142 1308Q1150 1325 1168 1338T1210 1352T1249 1336T1266 1302T1250 1235L1199 1099L1082 804L904
362L797 87Q751 -29 721 -48T660 -66T600 -48T541 49L457 267L222 899L92 1233Q79 1267 80 1288T95 1325T140 1342Q159 1342 172 1333T198 1294L348 896Z" />
<glyph unicode="W" glyph-name="null" horiz-adv-x="1856" d="M903 1185L896 1178L721 483L656 227L608 41Q591 -22 565 -42T508 -62Q479 -63 450 -43T402 42L370 158L271 565L123 1154Q88 1296 91 1312T106 1343T143 1357T180 1346T203 1299L237 1160L386 565L485
150L494 104Q499 96 505 97Q510 97 513 104T522 128L639 611L792 1186Q826 1315 850 1332T908 1350Q943 1349 968 1327T1005 1259L1058 1035L1222 318L1242 224L1264 105Q1268 93 1272 93T1281 99T1291 123L1369 434L1528 1004L1606 1294Q1614 1324 1631 1336T1670
1348Q1698 1347 1711 1332T1725 1301T1720 1258L1396 100Q1368 0 1358 -17T1325 -51T1277 -68Q1249 -69 1218 -48T1180 5L1109 289L956 962L928 1118Q918 1172 917 1173L903 1185V1185Z" />
<glyph unicode="X" glyph-name="null" horiz-adv-x="1360" d="M743 670L1234 41Q1256 12 1250 -9T1233 -43T1198 -59T1157 -40L668 573L191 -48Q173 -71 149 -69T110 -56T87 -20T95 27L595 666L155 1242Q132 1271 134 1296T147 1334T186 1356T243 1329L677 772L1092
1346Q1108 1369 1135 1367T1178 1351T1199 1317T1189 1274L743 670Z" />
<glyph unicode="Y" glyph-name="null" horiz-adv-x="1389" d="M677 656L1152 1309Q1170 1335 1196 1335T1237 1323T1256 1287T1244 1241L737 547L736 -3Q735 -41 712 -51T677 -60Q659 -60 638 -48T617 -3V547L95 1230Q78 1252 84 1273T102 1307T140 1322T185 1304L677
656Z" />
<glyph unicode="Z" glyph-name="null" horiz-adv-x="1286" d="M803 1190L214 1189Q185 1188 167 1206T147 1248T168 1287T214 1304L881 1308Q1055 1309 1078 1304T1119 1278T1138 1216T1105 1135L996 1006L321 193Q238 93 238 82T242 67L285 68L1098 67Q1113 66
1131 54T1149 13T1133 -32T1098 -49L239 -50Q182 -51 153 -45T104 -19T84 41T103 103L852 1019Q924 1107 960 1135T988 1180T956 1196L803 1190Z" />
<glyph unicode="[" glyph-name="null" d="M304 4Q302 -73 303 -115T317 -172T355 -189T483 -190H837Q855 -190 870 -207T884 -247Q882 -265 867 -282T829 -299L393 -300Q338 -301 297 -291T236 -260T208 -195T199 -105V1312Q199 1380 212 1418T253 1481T315 1513T447
1519H851Q878 1519 891 1499T903 1461Q901 1447 889 1431T851 1415L479 1416Q385 1416 362 1412T327 1393T309 1356T305 1306L306 1201L304 4Z" />
<glyph unicode="\" glyph-name="null" d="M962 -201Q976 -231 976 -247T968 -272T943 -272T913 -238L50 1381Q37 1403 35 1414T40 1434T63 1441T86 1426L962 -201Z" />
<glyph unicode="]" glyph-name="null" d="M704 1205V1310Q704 1338 699 1360T682 1397T646 1416T531 1420L158 1419Q142 1418 125 1429T106 1472T125 1513T158 1523H562Q658 1523 693 1517T756 1486T796 1422T810 1316L811 -101Q811 -146 802 -190T773 -256T712
-287T616 -296L173 -295Q155 -295 141 -284T126 -244T139 -201T172 -186H527Q628 -186 653 -185T691 -169T705 -130T706 8L704 1205Z" />
<glyph unicode="^" glyph-name="null" horiz-adv-x="661" d="M48 1069Q205 1319 259 1406L323 1510L608 1069L582 1067L329 1282L83 1075L48 1069Z" />
<glyph unicode="_" glyph-name="null" d="M4 -175V-89H1009V-175H4Z" />
<glyph unicode="`" glyph-name="null" horiz-adv-x="1022" d="M474 734L471 760L465 869L454 1050L448 1185L441 1317L435 1435Q434 1468 437 1485Q441 1505 453 1516T483 1531Q497 1533 514 1529T542 1516T560 1494T566 1447Q564 1411 562 1382L552 1290Q548
1253 544 1177T531 970T519 801L514 747Q512 728 505 719T488 711Q480 712 477 717T474 734Z" />
<glyph unicode="a" glyph-name="null" horiz-adv-x="1181" d="M1042 211Q1041 127 1043 90T1051 21T1054 -25Q1050 -42 1037 -54T1003 -66Q983 -66 968 -54T945 -19T936 32L938 83Q938 88 938 92Q937 100 934 105T925 112T904 94Q887 71 873 57T831 22T768 -18T675
-53T527 -70Q431 -70 346 -42T204 41T124 155T101 287Q101 343 115 388T156 473T241 557T372 621T476 642L645 647Q733 649 779 656T856 674T910 712T937 771T901 845Q875 872 831 894T743 925T629 937Q513 939 465 924T372 882T300 809L269 754Q258 740 246 733T215
725T180 740T159 783T199 869Q235 917 267 949T369 1016T588 1052Q732 1052 828 1019T969 938T1033 831T1053 732L1050 516L1042 211ZM741 537L562 531Q426 526 358 491T255 407T218 299T232 202Q247 163 290 122T410 62T572 49Q639 53 693 72T794 128T871 211T912
293T930 377T939 503T938 586T931 592T868 558Q855 550 822 547L741 537V537Z" />
<glyph unicode="b" glyph-name="null" horiz-adv-x="1188" d="M113 1241Q119 1272 131 1286T174 1303T220 1286T235 1241L234 917L233 877Q236 873 241 872T259 891Q270 909 309 943T406 1016T593 1057Q702 1058 778 1023T906 937T995 827T1053 663T1076 487T1059
324Q1045 260 1018 197T923 66T774 -37T597 -72Q533 -73 488 -60T384 -20T293 55T248 104T231 102T230 45L233 4Q237 -59 175 -60T113 4V1241ZM240 566L235 445Q231 349 258 276T377 127T597 53Q739 54 816 131T928 285T958 498Q953 643 913 723T802 871T588 938Q445
935 377 866T287 753T254 652T240 566Z" />
<glyph unicode="c" glyph-name="null" horiz-adv-x="1166" d="M97 542Q97 556 98 575T119 672T160 797T212 888T282 966T380 1029T497 1071T613 1082Q678 1079 766 1051T898 979T968 898T1021 807T1043 721Q1039 695 1022 679T978 662Q959 661 945 670T923 703L908
756Q900 777 872 821T778 916T598 967Q454 966 372 886T255 706T222 504Q223 446 236 375T271 261T344 168T446 94T571 68Q653 63 709 82T813 134T885 214T918 303T930 355T947 377T990 390T1033 376T1047 337T1039 276Q1028 237 1008 184T925 69T776 -24T600 -56Q496
-58 409 -22T260 76T166 212T122 326T105 422T97 542Z" />
<glyph unicode="d" glyph-name="null" horiz-adv-x="1174" d="M935 900V1244Q935 1275 952 1290T988 1306T1027 1290T1047 1244V-46Q1047 -63 1030 -74T995 -87Q978 -89 957 -79T935 -46V51Q935 99 932 110T921 121Q916 120 911 115T888 80T817 9T707 -60T569
-84Q529 -83 462 -68T355 -35T261 35T177 141T124 274T95 460T105 649Q124 743 169 814T264 933T374 1009T520 1048Q614 1059 672 1043T772 999T844 946T889 894T912 864T924 861Q933 861 938 870L935 900V900ZM572 45Q623 45 680 60T781 114T859 206T914 335T931
518Q925 628 892 706T783 857T568 930Q449 929 361 858T238 677T209 452Q214 344 246 264T335 131T450 60T572 45Z" />
<glyph unicode="e" glyph-name="null" horiz-adv-x="1181" d="M220 474Q218 439 220 412T236 337T272 250T318 182T380 126T462 81T563 60Q593 57 632 61T708 77T784 115T856 173T910 246L945 322Q953 336 962 342T998 350T1038 335T1057 285T1005 167Q964 109
918 62T806 -15T692 -56T586 -67Q531 -67 486 -57T380 -21T266 57T175 176T118 318T99 461T106 587Q117 672 140 736T193 847T276 947T417 1035T593 1070Q680 1069 767 1034T912 942T1006 820T1054 696T1066 606Q1064 572 1054 551T1026 512T979 485T918 474H220ZM227
591H814Q921 591 930 604T941 635T932 691Q919 731 906 756T861 818T792 881T703 926T590 945Q515 945 458 920T358 860T281 769T240 669L227 591V591Z" />
<glyph unicode="f" glyph-name="null" horiz-adv-x="1003" d="M402 827V-10Q402 -36 382 -52T339 -67Q318 -67 300 -52T282 -10V827L138 826Q111 825 98 842T84 877T94 918T137 942H282Q282 1050 294 1104T332 1198T394 1272T484 1325T590 1345Q656 1345 703 1327T794
1284T853 1243T867 1202T850 1159T810 1140Q798 1139 791 1142T746 1172T659 1215T574 1228Q546 1224 516 1210T451 1166T404 1037Q399 1001 401 967L402 942H760Q782 942 796 923T811 882Q810 860 796 844T760 827H402Z" />
<glyph unicode="g" glyph-name="null" horiz-adv-x="1193" d="M836 993Q870 1022 896 1042T950 1074T1000 1085T1037 1067T1053 1028Q1052 1005 1042 994T993 965T946 940L918 914Q930 886 942 859T960 804T964 732Q960 683 943 639T889 556T802 500T676 477T535
475T451 476Q433 474 374 466T300 443T284 415T296 388Q308 374 353 367T426 356T555 349T727 336T883 299T1006 229T1062 133T1079 26Q1077 -26 1063 -66T1028 -134T969 -195T898 -244T823 -273T714 -295T599 -303Q580 -303 500 -296T394 -284T323 -263T241 -229T161
-166T103 -72T89 27T99 113Q109 146 131 176T181 226T235 258L278 274Q295 281 295 287Q294 291 284 299L227 320Q200 331 182 358T163 418T186 480Q197 494 217 507T252 525L282 532Q296 537 297 543T290 559Q285 563 269 576T241 605T217 652T200 725T205 815Q215
865 240 904T307 972T422 1025T588 1048Q666 1045 711 1031L836 993V993ZM608 -186Q739 -186 808 -157T917 -79T957 36Q955 107 913 148T787 214T608 242Q529 244 451 232T321 192T238 122T210 25Q211 -43 262 -97T418 -169T608 -186ZM590 577Q656 577 718 592T816
643T851 756Q848 826 808 868T713 927T599 943Q569 942 515 936T416 912T338 846T312 738Q319 682 359 644T463 591T590 577Z" />
<glyph unicode="h" glyph-name="null" horiz-adv-x="1018" d="M209 -13Q203 -38 191 -52T147 -65Q121 -65 108 -50T95 -13V1282Q95 1310 115 1325T157 1340Q176 1338 195 1323T215 1282L214 938Q213 894 215 892T224 890Q228 890 235 902T273 946T318 989T369
1017T447 1043T534 1054Q578 1054 621 1046T713 1016T806 949T880 839T908 708V-13Q908 -33 890 -49T848 -65Q826 -65 809 -50T791 -13L789 620Q788 721 786 738T770 796T726 867T652 918T550 941Q500 943 462 932T374 891T293 820T236 726T209 611V-13Z" />
<glyph unicode="i" glyph-name="null" horiz-adv-x="465" d="M120 1259L146 1326L218 1354L293 1324L324 1248L294 1175Q265 1146 225 1146T152 1177L120 1242V1259V1259ZM164 -6L167 995Q167 1023 186 1039T224 1057T264 1044T287 995L290 -6Q290 -34 268 -49T224
-63Q201 -62 182 -46T164 -6Z" />
<glyph unicode="j" glyph-name="null" horiz-adv-x="581" d="M276 222L274 992Q273 1017 291 1033T332 1050Q352 1050 374 1035T397 992L396 142Q395 88 383 31T344 -81T283 -170T207 -227T134 -258T35 -265Q-21 -265 -64 -256T-125 -224T-147 -188T-146 -150Q-142
-136 -131 -124T-89 -112Q-81 -113 -29 -128T68 -143Q100 -144 132 -136T194 -99T249 -16T274 89L276 222V222ZM234 1259Q240 1308 265 1335T333 1363T406 1332T438 1255T408 1179T335 1149Q299 1149 268 1176T235 1228T234 1259Z" />
<glyph unicode="k" glyph-name="null" horiz-adv-x="1105" d="M225 -11Q210 -35 197 -50T162 -70T123 -55T106 -11L105 1239Q105 1270 125 1288T167 1307Q182 1306 203 1291T225 1239V-11ZM336 414Q284 454 272 478T258 530T272 585T313 630L833 1031Q866 1056
891 1049T928 1021T937 979T918 946L451 602Q420 579 405 562T389 531T421 490L525 406L965 43Q983 28 976 -1T950 -49T918 -60L875 -46L336 414Z" />
<glyph unicode="l" glyph-name="null" horiz-adv-x="431" d="M281 9Q273 -32 257 -47T213 -58Q187 -55 173 -35T159 9V1243L179 1285L219 1300L255 1290L281 1243V9Z" />
<glyph unicode="m" glyph-name="null" horiz-adv-x="1472" d="M1378 621L1379 0Q1379 -22 1363 -35T1330 -50Q1310 -53 1286 -40T1262 0V634Q1262 786 1243 824T1200 886T1132 927T1048 946Q996 946 946 924T867 872T823 813T800 751T793 611V0Q793 -34 771 -47T732
-58Q713 -57 696 -42T680 0L682 605Q682 722 670 779T622 874T550 926T471 943Q421 943 377 925T302 877T245 805T220 713L219 0Q218 -30 200 -46T159 -60Q136 -59 122 -42T107 0V980Q107 1003 125 1018T167 1033Q194 1031 207 1015T221 980V962Q221 948 228 947T245
959Q263 984 286 1001T357 1035T461 1054Q505 1054 551 1044T632 1013T691 959L721 910L741 879Q762 910 781 937T835 994T923 1041T1031 1059T1155 1042T1274 976T1347 867T1373 757L1378 621V621Z" />
<glyph unicode="n" glyph-name="null" horiz-adv-x="1070" d="M252 -9Q243 -35 233 -48T198 -68T153 -59T132 -9V970Q132 995 151 1010T194 1025Q217 1024 234 1010T252 982V910L248 886Q249 874 257 870T289 902Q300 919 325 939T378 979T434 1009T506 1026T578
1034Q608 1034 656 1025T746 996T835 935T911 829T942 648V-9Q942 -30 923 -50T878 -73T836 -52T819 -9L818 585Q817 719 809 760T763 841T673 900T577 922Q517 924 459 899T367 840T302 755T261 668T252 569V-9Z" />
<glyph unicode="o" glyph-name="null" horiz-adv-x="1181" d="M1056 542Q1056 503 1055 452T1020 279T916 86T760 -31T567 -74Q490 -74 409 -43T279 25T204 98T155 169T115 262T91 371T89 493Q96 634 131 737T239 914T392 1019T580 1050Q685 1049 748 1023T867
950T957 855T1015 746T1041 661L1056 542V542ZM203 555L199 443Q195 347 227 281T308 160T409 83T517 54T613 54Q657 60 726 94T839 177T910 312T939 485T930 628Q918 687 891 741T817 838T713 908T572 935Q502 934 440 910T325 837T252 737T217 630T203 555Z"
/>
<glyph unicode="p" glyph-name="null" horiz-adv-x="1185" d="M227 110V-255Q227 -308 173 -307T118 -255V965Q118 1029 178 1025T238 965V902Q238 884 238 878T244 869T266 891Q278 909 302 934T368 985T466 1027T582 1044Q652 1045 717 1026T837 974T949 879T1037
703T1066 483Q1064 346 1023 243T915 71T767 -34T582 -72Q502 -74 444 -54T342 -1T265 69L227 110V110ZM576 53Q661 53 724 80T832 160T912 286T945 486Q944 546 932 610T897 726T831 821T727 891T589 918Q521 918 465 898T363 836T283 739T236 627T224 466T251
291Q277 221 335 159T446 75T576 53Z" />
<glyph unicode="q" glyph-name="null" horiz-adv-x="1171" d="M1050 978L1048 -166Q1047 -188 1031 -202T985 -215Q963 -215 944 -204T925 -166L924 88Q923 97 921 103T915 110T906 99Q896 82 871 54T817 3T748 -36T660 -61T581 -72Q522 -74 444 -51T305 16T207
108T146 212T112 318T95 440T98 573Q104 622 129 699T183 824T262 919T397 1006T583 1045Q656 1044 720 1023T821 976T881 919L910 881Q923 864 927 866T932 877T933 930V978Q933 1003 948 1019T988 1037T1031 1026T1050 978ZM571 57Q629 56 690 76T798 139T858
205T886 259T916 331T932 489Q931 565 914 652T812 829T590 920T365 851Q318 814 284 761T233 650T215 515T220 395Q227 336 254 271T334 154T448 79T571 57Z" />
<glyph unicode="r" glyph-name="null" horiz-adv-x="942" d="M235 -3Q225 -34 213 -49T178 -69T138 -56T121 -3V979Q121 1053 180 1053T240 979V923Q240 915 236 903T231 879T236 866T254 885Q262 898 277 920T320 973T415 1030T543 1057Q599 1056 658 1033T758
971T827 870T852 777Q849 755 835 739T791 724Q766 724 753 735T726 787T688 864T627 916T537 933Q495 932 447 918T334 835T253 704T236 577L235 -3Z" />
<glyph unicode="s" glyph-name="null" horiz-adv-x="1091" d="M581 467L547 471Q401 488 329 519T216 594T161 676T147 768Q148 823 170 875T229 962T309 1018T429 1053T588 1065Q692 1059 769 1026T882 958T945 859T969 760Q965 729 949 714T914 698T878 711Q857
726 847 753L828 824Q810 868 760 900T621 944Q491 960 425 935T322 880T274 819T269 750Q276 704 302 675T365 632T455 609L616 579Q735 556 810 525T938 431T991 266Q990 226 974 169T923 78T847 16T760 -31T632 -55T507 -58Q463 -55 404 -40T305 -5T217 63T140
173T113 281T131 342T173 359Q194 358 207 347T229 321L251 240Q270 172 325 129T441 74T566 64Q630 65 700 80T817 144T864 258T830 370T709 438L581 467Z" />
<glyph unicode="t" glyph-name="null" horiz-adv-x="951" d="M268 842H154Q124 842 109 862T94 907Q95 928 110 945T154 964L268 965V1227Q268 1250 289 1264T334 1276Q346 1274 367 1263T388 1227V962L738 963Q767 963 780 941T792 899Q790 882 778 862T738 842H388L387
317Q386 252 396 206T438 125T503 74T583 59Q628 59 658 76T705 119L732 168Q744 188 758 196T793 204T831 188T850 152T837 104Q806 42 778 13T698 -40T579 -63Q516 -63 457 -39T363 24T298 126T267 230T267 272L268 842Z" />
<glyph unicode="u" glyph-name="null" horiz-adv-x="1062" d="M112 340V990Q112 1025 129 1042T174 1060Q198 1059 213 1043T229 990L230 370Q230 282 253 222T308 134T390 86T499 65Q556 63 608 82T702 142T780 250T816 386L814 990Q813 1032 826 1049T877 1066Q902
1064 919 1048T936 990V18Q936 -10 920 -30T878 -48Q859 -47 842 -29T825 18V89Q825 96 823 103T816 111T805 104L774 62Q760 46 721 19T632 -32T491 -54Q414 -53 343 -25T224 48T145 164T112 340Z" />
<glyph unicode="v" glyph-name="null" horiz-adv-x="1137" d="M432 456L533 181Q562 101 565 99T570 97T576 99T597 147L901 983Q923 1044 935 1052T969 1061T1012 1040T1033 1009T1031 995L965 818L751 246Q675 44 656 5T617 -47T578 -60Q553 -61 530 -46T496
-12T384 261L115 944Q98 987 99 1005T116 1039T159 1056Q176 1056 190 1047T220 1000L432 456Z" />
<glyph unicode="w" glyph-name="null" horiz-adv-x="1550" d="M945 154L815 671L773 890Q767 902 763 902T751 894L678 583L539 57Q515 -30 496 -47T444 -64Q416 -65 391 -49T345 43L80 967Q73 993 80 1021T113 1053T161 1043T193 993L421 157L432 113Q436 108
440 108T448 111T455 132L487 277L663 960Q672 996 682 1014T714 1046T765 1061T817 1036T854 966L1059 159Q1068 121 1072 116T1081 111T1091 118L1094 131L1347 1013Q1357 1050 1372 1062T1408 1074T1447 1057T1465 1024T1456 973L1194 89Q1160 -25 1135 -41T1080
-58T1021 -35T979 35L945 154Z" />
<glyph unicode="x" glyph-name="null" horiz-adv-x="1116" d="M478 542L177 965Q159 989 152 1011T165 1058T214 1077T259 1049L555 646L827 1033Q851 1068 880 1074T928 1063T948 1022T937 979L620 544L997 50Q1026 11 1017 -9T989 -42T950 -55T912 -33L551 441L188
-34Q176 -50 148 -53T99 -33T85 15T112 67L478 542Z" />
<glyph unicode="y" glyph-name="null" horiz-adv-x="1113" d="M361 306L104 958Q92 986 103 1007T132 1036T173 1038T208 1007L473 343L519 224L548 137Q553 131 557 131T567 135T577 152L695 490L882 1007Q891 1032 916 1040T961 1037T990 1005T991 963L771 358L627
-25Q580 -149 553 -198T488 -273T393 -310T300 -317Q279 -316 199 -297T101 -253T82 -214T90 -182T121 -155Q139 -149 167 -158L227 -185Q265 -201 315 -202Q367 -204 395 -190T439 -160T466 -124T488 -82T500 -51T503 -35Q502 -30 501 -26T495 -9L361 306Z" />
<glyph unicode="z" glyph-name="null" horiz-adv-x="1025" d="M308 363L660 785L723 852Q742 876 752 886T762 903T732 918L621 916H168Q134 916 120 934T104 969T118 1007T168 1028H816Q842 1028 861 1018T895 994T910 959T903 911T865 848L508 416L341 213Q260
114 236 93T212 66T218 55T392 51H861Q899 51 911 33T924 0T912 -36T861 -57L303 -56H154Q111 -48 92 -26T73 27T80 78T128 146L308 363Z" />
<glyph unicode="{" glyph-name="null" horiz-adv-x="1025" d="M268 594V639Q302 652 334 666T398 708T446 773T467 866T463 990Q457 1032 444 1108T428 1225T430 1312Q436 1367 454 1416T500 1499T568 1557T642 1585T681 1580T674 1556Q669 1550 637 1535T586
1496T555 1438T541 1341T542 1222Q542 1216 554 1122T564 966Q562 923 553 881T520 794T463 717T394 665L308 616Q390 581 428 553T491 490T532 415T554 339T559 249Q558 194 557 162T548 66T538 -46T541 -142Q546 -186 560 -218T592 -271T636 -311T675 -343T684
-366T661 -377T610 -358Q554 -323 541 -313T502 -270T461 -211T437 -144T428 -47Q428 7 440 93L464 259Q471 320 471 375T448 475T406 527L268 594V594Z" />
<glyph unicode="|" glyph-name="null" horiz-adv-x="451" d="M181 -403V1634H279V-403H181Z" />
<glyph unicode="}" glyph-name="null" horiz-adv-x="1025" d="M742 597Q641 562 609 534T557 469T537 378T545 261L569 95Q581 7 581 -47T572 -144Q563 -182 548 -209T507 -268T464 -313T408 -351T349 -375T326 -364T338 -336Q346 -327 371 -309T415 -271T447
-217T468 -137T471 -26Q469 -3 462 59T452 162T450 251Q450 302 455 340T476 418T522 500T582 557L701 618Q643 649 606 672T541 723T490 795T456 882T444 976T453 1112Q466 1214 468 1247T468 1349Q464 1406 453 1441T423 1498T373 1536T333 1561T327 1581T362
1589Q400 1586 440 1560T509 1501T554 1419T578 1318T582 1224Q579 1184 565 1107T544 977T541 870Q544 813 561 775T613 707T689 662L742 641V597Z" />
<glyph unicode="~" glyph-name="null" horiz-adv-x="825" d="M102 1212Q113 1229 132 1255T173 1305T210 1344T247 1368T288 1378Q307 1377 325 1368T403 1321T503 1267T572 1252Q611 1254 646 1282T706 1337T740 1372T755 1380T767 1375T768 1346Q763 1330 753
1312T726 1269T682 1213T621 1149T553 1113Q533 1110 512 1117T429 1163T335 1220T274 1239Q248 1239 225 1229T185 1206T144 1171T108 1131T87 1112T69 1122T76 1166T102 1212Z" />
</font>
</defs>
</svg>
