<?xml version="1.0" standalone="no"?> <!DOCTYPE svg PUBLIC "-//W3C//DTD SVG 1.0//EN" "http://www.w3.org/TR/2001/REC-SVG-20010904/DTD/svg10.dtd" > <svg xmlns="http://www.w3.org/2000/svg" width="100%" height="100%">
<defs >
<font id="elephnt" horiz-adv-x="488" ><font-face
    font-family="Elephant"
    units-per-em="1000"
    panose-1="2 2 9 4 9 5 5 2 3 3"
    ascent="962"
    descent="-265"
    alphabetic="0" />
<missing-glyph horiz-adv-x="800" d="M50 0V800H750V0H50ZM700 50V750H100V50H700Z" />
<glyph unicode=" " glyph-name="space" horiz-adv-x="250" />
<glyph unicode="!" glyph-name="exclam" horiz-adv-x="323" d="M274 587Q274 527 220 429T166 212H151Q151 321 98 439T44 589Q44 644 81 691T160 739Q199 739 236 693T274 587ZM257 89Q257 49 229 22T159 -6Q119 -6 91 21T62 89Q62 128 90 155T159 183Q200 183
228 157T257 89Z" />
<glyph unicode="&quot;" glyph-name="quotedbl" horiz-adv-x="375" d="M171 659Q171 632 143 550T107 404H91Q84 463 56 549T27 659Q27 691 54 716T99 742Q115 742 143 718T171 659ZM347 659Q347 632 319 550T283 404H267Q260 463 232 549T203 659Q203 691 230
716T275 742Q291 742 319 718T347 659Z" />
<glyph unicode="#" glyph-name="numbersign" horiz-adv-x="769" d="M409 724L433 718L366 527H527L596 724L620 718L553 527H718L673 408H511L472 301H639L594 183H430L360 -14L336 -8L404 183H243L173 -14L149 -8L217 183H51L96 301H259L297 408H130L174 527H340L409
724ZM321 408L281 301H448L488 408H321Z" />
<glyph unicode="$" glyph-name="dollar" horiz-adv-x="710" d="M364 11Q413 19 446 44T479 115Q479 158 457 185T364 241V11ZM370 740H386Q494 740 559 700T624 584Q624 544 596 516T526 487Q485 487 455 511T425 580Q425 619 447 644T491 672T513 685Q513 697
476 709T400 721L370 720V486Q437 459 504 433Q572 401 611 353T650 239Q650 116 566 60T364 -9V-105H343V-11L302 -12Q214 -12 132 29T49 149Q49 191 79 222T153 254Q199 254 229 227T259 154Q259 115 235 93T182 67Q166 67 166 55Q166 42 215 25T305 7L343 8V249Q306
264 266 280T186 318T110 392T74 509Q74 619 165 679T349 740V801H370V740ZM349 717Q307 708 283 682T258 615Q258 572 282 544T349 495V717Z" />
<glyph unicode="%" glyph-name="percent" horiz-adv-x="983" d="M951 236Q951 136 874 62T677 -12Q641 -12 609 2T552 41T514 100T500 173Q500 270 576 345T774 421Q812 421 842 407T896 369T936 312T951 236ZM347 683Q347 703 341 712T316 721Q297 721 281 696T239
613T186 476T159 362Q159 343 165 334T190 325Q213 325 229 354T268 434T319 568T347 683ZM716 723L731 748Q736 754 742 754Q748 754 752 749T753 736L242 -36L223 -23L698 695Q664 675 635 667T561 658Q531 658 497 665T431 686Q458 654 468 620T479 556Q479
455 402 381T205 307Q169 307 137 321T81 359T43 417T28 489Q28 587 103 663T302 740Q327 740 346 736T402 717T483 690T565 678Q618 678 652 688T716 723ZM819 364Q819 384 813 393T788 403Q772 403 758 386T715 305T659 159T631 43Q631 24 637 15T662 6Q685 6
701 35T740 115T791 249T819 364Z" />
<glyph unicode="&amp;" glyph-name="ampersand" horiz-adv-x="980" d="M504 108Q452 167 393 254T290 431Q271 423 259 395T246 331Q246 225 304 157T437 89Q467 89 481 95T504 108ZM583 616Q583 664 564 692T510 720Q489 720 474 706T459 668Q459 637 475 595T517
511Q544 523 563 546T583 616ZM677 272Q684 280 702 302T737 352T757 393T761 415Q761 433 748 439T711 447L664 450V466H918V450Q907 449 895 449T851 441T788 388T733 312T689 257Q754 177 797 146T875 114Q904 114 927 135T955 220H971Q971 111 902 50T731 -12Q667
-12 617 13T516 95Q452 31 399 10T284 -12Q172 -12 106 53T40 210Q40 298 99 361T283 446Q265 482 257 505T249 572Q249 634 310 687T493 740Q569 740 609 707T650 622Q650 580 618 548T524 498Q560 438 596 384T677 272Z" />
<glyph unicode="&apos;" glyph-name="quotesingle" horiz-adv-x="205" d="M178 659Q178 633 148 550T110 404H94Q87 464 57 549T26 659Q26 690 55 716T102 742Q119 742 148 717T178 659Z" />
<glyph unicode="(" glyph-name="parenleft" horiz-adv-x="468" d="M453 -183V-199Q282 -183 179 -57T75 265Q75 465 178 588T453 729V713Q353 701 310 590T266 265Q266 53 309 -59T453 -183Z" />
<glyph unicode=")" glyph-name="parenright" horiz-adv-x="468" d="M394 265Q394 68 291 -57T16 -199V-183Q117 -171 160 -60T203 265Q203 480 160 590T16 713V729Q187 711 290 588T394 265Z" />
<glyph unicode="*" glyph-name="asterisk" horiz-adv-x="480" d="M234 550Q231 588 207 629T182 684Q182 703 205 724T241 745Q255 745 277 725T299 685Q299 677 274 631T245 550L256 540Q290 554 322 592T375 631Q397 631 419 615T442 586Q442 568 426 542T388
516Q381 516 345 524T292 532Q277 532 259 529L257 517Q281 489 333 469T385 417Q385 399 379 381T366 358T340 353Q281 353 272 420T248 511H233Q216 483 211 418T139 352Q120 352 114 357T101 379T95 414Q95 446 147 468T224 518L221 529Q212 531 203 532T186
533Q166 533 135 526T94 518Q69 518 54 543T38 590Q38 601 61 617T106 633Q122 633 157 594T224 540L234 550Z" />
<glyph unicode="+" glyph-name="plus" horiz-adv-x="833" d="M457 626V369H709V288H457V30H376V288H124V369H376V626H457Z" />
<glyph unicode="," glyph-name="comma" horiz-adv-x="272" d="M50 -120Q103 -115 143 -84T183 -8Q183 3 181 8T173 13Q166 13 150 6T121 -1Q88 -1 61 24T34 85Q34 126 60 154T129 183Q182 183 215 144T249 49Q249 -30 192 -82T52 -134L50 -120Z" />
<glyph unicode="-" glyph-name="hyphen" horiz-adv-x="281" d="M7 320H274V165H7V320Z" />
<glyph unicode="." glyph-name="period" horiz-adv-x="272" d="M36 89Q36 129 65 157T135 185Q176 185 205 158T235 89Q235 48 206 20T135 -8Q94 -8 65 20T36 89Z" />
<glyph unicode="/" glyph-name="slash" horiz-adv-x="361" d="M-32 -101L337 770L382 754L13 -116L-32 -101Z" />
<glyph unicode="0" glyph-name="zero" horiz-adv-x="758" d="M722 364Q722 219 626 104T379 -12Q220 -12 128 108T36 364Q36 509 135 624T379 740Q529 740 625 623T722 364ZM473 364Q473 447 470 506T459 620T433 698T379 721Q346 721 327 698T300 626T289 506T285
364Q285 287 288 225T300 107T325 30T379 7Q412 7 431 30T457 101T468 224T473 364Z" />
<glyph unicode="1" glyph-name="one" horiz-adv-x="527" d="M391 125L393 79Q396 46 407 35T438 21T470 18T500 16V0H28V16Q39 16 50 16T89 20T128 36T143 81L145 127V597L143 643Q140 674 129 688T95 706T49 710T16 713V729H391V125Z" />
<glyph unicode="2" glyph-name="two" horiz-adv-x="731" d="M16 7Q82 67 152 132T259 235Q354 325 385 391T416 532Q416 616 382 665T281 714Q233 714 192 689T150 634Q150 586 202 586Q240 586 263 564T287 505Q287 460 256 430T180 400Q124 400 87 432T50 518Q50
580 92 630T186 704T279 733T366 740Q487 740 572 686T657 530Q657 466 618 416T529 341T379 276T266 218V214Q291 216 323 217T393 218H551Q600 218 620 230T649 264T665 307T677 342H690L626 0H16V7Z" />
<glyph unicode="3" glyph-name="three" horiz-adv-x="718" d="M462 412Q565 412 625 361T685 223Q685 106 563 47T288 -12Q185 -12 102 39T19 166Q19 223 58 261T154 299Q214 299 251 268T289 185Q289 148 275 129T237 89T208 62T203 43Q203 25 231 15T298 4Q370
4 406 57T443 198Q443 276 404 336T296 397Q272 397 251 391Q232 384 214 377Q209 377 204 381T198 392Q198 404 219 408T269 412Q338 412 376 452T414 565Q414 629 388 673T301 718Q266 718 235 705T203 667Q203 654 211 645T242 632T283 609T300 559Q300 516
268 493T183 470Q134 470 103 499T72 574Q72 619 121 661T234 722T363 740Q491 740 568 699T646 569Q646 502 593 465T462 420V412Z" />
<glyph unicode="4" glyph-name="four" horiz-adv-x="700" d="M325 199V392L326 502Q303 476 261 427T160 316T42 200L166 199H325ZM563 199H681V156H563V117Q563 99 565 73T579 35T611 21T648 18T677 16V0H203V16Q216 16 229 16T270 20T309 36T324 81L326 156H-12V177Q65
246 149 336T327 536T489 733H563V199Z" />
<glyph unicode="5" glyph-name="five" horiz-adv-x="674" d="M77 340L164 735H173Q208 724 257 713T367 702Q444 702 492 713Q524 725 556 738Q566 738 566 719Q566 689 544 651T467 570T298 527Q247 527 211 532T143 553L111 412Q157 457 212 473T356 490Q467
490 552 426T637 259Q637 130 527 59T271 -12Q161 -12 92 40T22 173Q22 215 56 246T135 277Q190 277 228 248T266 168Q266 118 234 86T202 41Q202 23 223 14T267 4Q342 4 369 65T396 217Q396 314 363 388T253 462Q184 462 150 428T107 376T92 338L77 340Z" />
<glyph unicode="6" glyph-name="six" horiz-adv-x="708" d="M433 225Q433 250 432 274T427 327Q427 378 410 411T357 444Q327 444 309 421T288 377T283 317T282 238V225Q282 176 289 118T311 34T360 7Q395 7 412 35T429 119Q429 135 431 175T433 225ZM359 -12Q278
-12 218 20T115 105T55 224T36 364Q36 518 135 629T405 740Q507 740 580 700T654 592Q654 551 623 526T548 501Q496 501 460 537T423 629Q423 645 428 659T440 690Q440 706 430 714T394 722Q364 722 342 700T308 625T290 519T284 414L288 412Q302 445 338 461T424
478Q532 478 602 415T672 253Q672 137 581 63T359 -12Z" />
<glyph unicode="7" glyph-name="seven" horiz-adv-x="626" d="M705 729L707 722Q662 677 609 622T490 486T378 305T332 102Q332 85 334 54T337 18Q337 -50 295 -93T194 -136Q132 -136 96 -95T60 8Q60 66 101 129T200 248T312 351T413 440T496 515L494 520Q482
520 437 519T376 517H152Q102 517 85 507T50 461L38 431L26 434L131 797H143L140 771Q140 742 155 735T213 727H389Q484 727 566 727T705 729Z" />
<glyph unicode="8" glyph-name="eight" horiz-adv-x="682" d="M159 328Q113 361 90 406T67 509Q67 577 105 628T208 709T359 740Q466 740 538 688T610 551Q610 510 586 481T517 440V436Q571 406 608 355T645 241Q645 126 555 57T333 -12Q279 -12 230 1T111 60T40
201Q40 253 73 285T159 323V328ZM500 445Q527 466 541 497T556 568Q556 639 505 679T367 720Q317 720 284 692T251 619Q251 575 281 546T340 505T425 474T500 445ZM174 318Q145 302 128 268T111 184Q111 109 173 58T331 7Q387 7 429 35T472 114Q472 160 449 189T345
251T174 318Z" />
<glyph unicode="9" glyph-name="nine" horiz-adv-x="706" d="M275 503Q275 486 277 449T280 400Q280 349 297 316T350 283Q381 283 398 306T418 349T422 418T424 503Q424 522 422 552T416 625T396 694T347 721Q278 721 278 609L275 503ZM348 740Q429 740 487 709T589
626T651 509T670 369Q670 211 568 100T297 -12Q191 -12 140 17T71 71T53 130Q53 173 83 197T158 221Q209 221 247 188T285 108Q285 87 279 68T273 39Q273 24 283 16T318 8Q348 8 368 27T402 97T421 204T427 320L423 322Q408 289 370 269T283 248Q177 248 107 310T36
475Q36 590 126 665T348 740Z" />
<glyph unicode=":" glyph-name="colon" horiz-adv-x="312" d="M56 89Q56 129 85 157T155 185Q196 185 225 158T255 89Q255 48 226 20T155 -8Q114 -8 85 20T56 89ZM56 378Q56 418 85 446T155 474Q196 474 225 447T255 378Q255 337 226 309T155 281Q114 281 85 309T56 378Z" />
<glyph unicode=";" glyph-name="semicolon" horiz-adv-x="312" d="M70 -120Q124 -115 163 -85T203 -8Q203 3 201 8T193 13Q184 13 169 7T143 0Q107 0 81 23T54 85Q54 126 80 154T149 183Q202 183 235 144T269 49Q269 -30 212 -82T72 -134L70 -120ZM56 378Q56 418
85 446T155 474Q196 474 225 447T255 378Q255 337 226 309T155 281Q114 281 85 309T56 378Z" />
<glyph unicode="&lt;" glyph-name="less" horiz-adv-x="833" d="M249 332V327L704 143L672 67L129 291V367L672 591L704 515L249 332Z" />
<glyph unicode="=" glyph-name="equal" horiz-adv-x="833" d="M701 471V390H132V471H701ZM701 269V188H132V269H701Z" />
<glyph unicode="&gt;" glyph-name="greater" horiz-adv-x="833" d="M704 291L161 65L129 141L584 327V332L129 517L161 593L704 367V291Z" />
<glyph unicode="?" glyph-name="question" horiz-adv-x="618" d="M275 88Q275 48 247 21T177 -7Q137 -7 109 20T80 88Q80 127 108 154T177 182Q218 182 246 156T275 88ZM164 210V403H180Q184 382 190 366T208 338T238 318T275 310Q319 310 346 352T374 494Q374
586 347 650T242 715Q208 715 183 703T157 671Q157 664 163 659T186 654Q223 654 246 632T270 573Q270 533 239 507T165 481Q127 481 99 509T71 579Q71 650 138 695T289 740Q410 740 492 682T574 508Q574 403 498 343T309 283Q267 283 237 298T188 339H184V210H164Z"
/>
<glyph unicode="@" glyph-name="at" horiz-adv-x="986" d="M601 313Q616 356 616 377Q616 391 610 398T589 405Q573 405 552 381T511 317T478 252T462 218L419 120Q405 86 398 65T391 33Q391 25 395 21T406 17Q431 17 464 48T517 124L561 218Q572 243 583 269T601
313ZM918 328Q918 438 848 519T595 601Q418 601 287 465T156 149Q156 -13 251 -101T487 -189Q569 -189 646 -164T836 -58L844 -70Q764 -136 671 -175T477 -214Q299 -214 176 -119T53 152Q53 360 211 502T588 644Q746 644 843 559T940 337Q940 258 912 196T832 80T726
8T630 -11Q582 -11 550 14T517 85L513 86Q480 38 448 16T364 -6Q310 -6 276 27T241 118Q241 225 338 332T556 439Q586 439 608 425T630 381Q629 375 629 372H633L658 430H835Q817 391 790 333T726 193T680 92T672 56Q672 41 679 33T700 25Q728 25 759 41T832 103T896
202T918 328Z" />
<glyph unicode="A" glyph-name="A" horiz-adv-x="748" d="M341 249L253 495L168 249H341ZM161 228L130 124Q120 88 120 67Q120 44 131 35T161 23T196 18T229 16V0H-53V16L6 20Q39 24 56 36T81 68T100 113T118 160L309 732H419L630 160L661 82Q675 51 689 38T730
20L771 16V0H296V16Q308 16 317 16T352 21T388 31T399 59Q399 81 385 122L349 228H161Z" />
<glyph unicode="B" glyph-name="B" horiz-adv-x="881" d="M478 396Q520 404 534 445T548 549Q548 600 530 647T484 702T433 710T391 712V389Q410 389 429 389T478 396ZM514 -1L25 0V16H56Q77 19 97 21T128 36T143 81L145 127V601L143 647Q140 679 128 692T95 708T56
711T24 713V729L486 730Q580 730 633 723T721 692T777 633T797 548Q797 475 755 443T670 401T565 390V382Q638 382 674 377T747 356T812 300T840 193Q840 130 811 88T737 26T627 2T514 -1ZM515 28Q548 36 562 91T577 206Q577 260 555 311T500 367T451 371T424 372H391V18H403Q439
18 463 19T515 28Z" />
<glyph unicode="C" glyph-name="C" horiz-adv-x="793" d="M443 -12Q271 -12 161 94T50 364Q50 531 159 635T442 740Q516 740 570 715L676 655Q706 655 716 675T730 734H750V418H733Q689 540 671 583T609 666T499 706Q412 706 370 608T328 379Q328 238 378 135T527
31Q618 31 673 97T746 269L763 266Q749 146 672 67T443 -12Z" />
<glyph unicode="D" glyph-name="D" horiz-adv-x="941" d="M27 0V16Q40 16 57 17T95 21T128 36T143 81L145 127V601L143 647Q140 679 128 692T95 708T56 711T24 713V729L397 731Q514 731 617 709T808 597T896 343Q896 186 818 112T652 19T448 0H27ZM497 700Q483
706 454 708T403 710H391V19Q398 19 404 19T419 18Q457 18 488 23T547 48T600 157T626 339Q626 469 595 571T497 700Z" />
<glyph unicode="E" glyph-name="E" horiz-adv-x="868" d="M391 20Q433 21 477 21T570 28T691 127T797 318H813V0H27V16Q40 16 57 17T95 21T128 36T143 81L145 127V601L143 647Q140 679 128 692T95 708T56 711T24 713V729H793V433H777Q726 545 653 621T531 703T447
709T402 710H393L391 382L433 384Q491 390 520 438T550 553H569V189H550Q550 256 521 306T433 362L391 364V20Z" />
<glyph unicode="F" glyph-name="F" horiz-adv-x="784" d="M773 729V405H757Q715 496 679 558T591 663T467 707L391 710V389L437 391Q495 397 524 446T554 560H573V196H554Q554 263 525 313T437 369L391 371V130L393 84Q396 52 409 38T443 21T482 18T514 16V0H27V16Q40
16 57 17T95 21T128 36T143 81L145 127V601L143 647Q140 679 128 692T95 708T56 711T24 713V729H773Z" />
<glyph unicode="G" glyph-name="G" horiz-adv-x="909" d="M327 379Q327 221 358 117T466 12Q504 12 524 27T549 60T555 104T556 166V205Q556 248 553 263Q550 296 540 308T507 323T467 326T434 328V344H902V328L856 325Q825 322 815 311T801 265L799 218V87L801
-3H786Q773 26 741 50T669 74Q634 74 569 31T397 -12Q249 -12 148 95T47 364Q47 534 158 637T441 740Q535 740 619 698T713 654Q742 654 752 675T771 737H791V414H774Q744 538 675 624T497 710Q411 710 369 611T327 379Z" />
<glyph unicode="H" glyph-name="H" horiz-adv-x="1005" d="M614 362H391V125L393 79Q393 46 404 35T448 19L484 16V0H38V16L88 20Q117 24 128 37T143 81L145 127V602L143 648Q140 680 130 692T88 709L36 713V729H484V713L448 710Q416 707 405 695T393 650L391
604V384H614V604L612 650Q609 683 599 694T557 710L521 713V729H969V713L917 709Q888 705 877 692T862 648L860 602V127L862 81Q865 49 875 37T917 20L967 16V0H521V16L557 19Q589 23 599 34T612 79L614 125V362Z" />
<glyph unicode="I" glyph-name="I" horiz-adv-x="536" d="M502 0H31V16Q38 16 50 16T89 20T128 37T143 81L145 127V602L143 648Q140 680 130 692T88 709L34 713V729H502V713L448 710Q417 707 407 696T393 650L391 604V125L393 79Q396 46 407 35T450 19L502 16V0Z" />
<glyph unicode="J" glyph-name="J" horiz-adv-x="656" d="M292 115L294 161V604L292 650Q289 683 279 694T249 708T216 711T192 713V729H644V713L597 709Q567 705 556 693T542 648L540 602V255Q540 145 435 67T201 -12Q107 -12 48 32T-12 155Q-12 205 25 241T113
277Q173 277 208 243T243 154Q243 106 220 77Q194 50 169 23Q169 13 183 10T218 6Q261 6 276 39T292 115Z" />
<glyph unicode="K" glyph-name="K" horiz-adv-x="932" d="M418 340L391 308V125L393 79Q396 46 406 35T448 19L484 16V0H38V16L88 20Q117 24 128 37T143 81L145 127V602L143 648Q140 680 130 692T88 709L36 713V729H487V713L448 710Q417 707 407 696T393 650L391
604V334Q420 368 472 428T578 551T651 640T670 682Q670 696 660 702T631 710L584 713V729H838V713Q825 712 811 712T777 707T736 691T685 647L585 532L858 110Q896 53 913 39T950 22T980 18T999 16V0H518V16L560 18Q581 20 591 24T601 43Q601 52 596 65T573 106T533
168T473 258T418 340Z" />
<glyph unicode="L" glyph-name="L" horiz-adv-x="819" d="M477 23Q537 23 596 78T701 205T784 357H800V0H18V16Q26 16 40 16T84 20T127 37T143 81L145 127V602L143 648Q140 680 130 692T97 708T59 711T30 713V729H514V713L448 710Q418 707 407 695T393 650L391
604V20L477 23Z" />
<glyph unicode="M" glyph-name="M" horiz-adv-x="1081" d="M162 605V138L164 90Q167 58 180 42T225 21L295 16V0H7V16Q22 17 39 17T82 21T121 42T139 90L141 138V602L139 648Q132 672 118 688T83 707T42 711T12 713V729H382L550 295L701 729H1061V713H1038Q1028
713 997 709T953 692T938 647L936 601V127L938 81Q941 49 951 37T993 20L1043 16V0H587V16L633 19Q665 23 675 34T688 79L690 125V496Q690 527 692 569T698 649H692L651 520L474 0H412L168 605H162Z" />
<glyph unicode="N" glyph-name="N" horiz-adv-x="900" d="M896 713Q883 712 868 711T824 706T782 683T764 632L762 584V0H640L165 608H161V141L163 93Q166 60 179 44T220 24T267 18T294 16V0H6V16Q19 17 35 18T91 25T138 93L140 141V596L138 642Q125 663 107 681T68
706T26 713H-4V729H378L737 269H741V588L739 636Q736 668 723 684T682 705T639 711T608 713V729H896V713Z" />
<glyph unicode="O" glyph-name="O" horiz-adv-x="906" d="M858 364Q858 204 737 96T451 -12Q279 -12 164 94T48 364Q48 532 166 636T451 740Q618 740 738 635T858 364ZM554 637Q524 721 451 721Q414 721 387 697T346 628T325 511T318 364Q318 261 326 196T356
69T451 7Q488 7 515 31T556 100T577 217T584 364Q584 453 578 518T554 637Z" />
<glyph unicode="P" glyph-name="P" horiz-adv-x="813" d="M513 0H25V16H56Q77 19 97 21T128 36T143 81L145 127V601L143 647Q140 679 128 692T95 708T56 711T24 713V729L491 730Q654 730 707 694T782 617T803 527Q803 482 789 441T746 374T674 334T563 321Q498
321 458 321T391 319V127L393 81Q396 49 407 37T441 21T484 18T513 16V0ZM553 529Q553 586 538 640T493 702T434 711T391 712V338Q411 339 432 340T487 347T537 407T553 529Z" />
<glyph unicode="Q" glyph-name="Q" horiz-adv-x="906" d="M368 55Q400 8 451 8Q471 8 491 17Q482 57 466 83T420 109Q397 109 385 95T368 55ZM673 56Q690 47 714 40T762 33Q818 33 848 61T878 147H892V74Q892 -29 838 -95T694 -161Q620 -161 571 -118T498 -5Q487
-7 475 -9T451 -11Q279 -11 164 95T48 364Q48 531 166 635T451 740Q617 740 737 634T858 364Q858 268 807 187T673 56ZM584 364Q584 453 578 518T548 652T451 721Q414 721 387 697T346 628T325 511T318 364Q318 282 326 198T355 72H359Q364 103 387 127T447 151Q486
151 515 135Q544 115 555 108Q571 157 577 223T584 364Z" />
<glyph unicode="R" glyph-name="R" horiz-adv-x="912" d="M391 364V130L393 84Q396 52 409 38T453 20L504 16V0H24V16H55Q77 19 97 21T128 36T143 81L145 127V601L143 647Q140 679 128 692T94 708T56 711T26 713V729L473 730Q566 730 624 722T718 690T776 631T798
548Q798 513 786 478T747 418T683 379T560 365V358Q611 347 645 337T708 308T758 252T795 170T820 107T851 88Q877 88 885 121T894 198H910Q910 149 904 120T874 60T806 9T709 -11Q628 -11 580 35T520 157T501 285Q490 343 472 352T433 363T391 364ZM471 385Q509
391 528 440T548 549Q548 598 528 645T480 701T430 710T391 712V382H425Q453 382 471 385Z" />
<glyph unicode="S" glyph-name="S" horiz-adv-x="710" d="M671 214Q671 115 588 52T406 -12Q320 -12 236 42T139 97Q106 97 98 72T83 -12H66V346H83Q89 325 103 277T157 163T261 52T411 8Q460 8 491 34T522 96Q522 139 499 164T416 212T289 263T147 336Q72 381
72 506Q72 604 151 672T333 740Q390 740 444 713L548 655Q577 655 586 679T595 740H614V475H596Q591 492 576 533T516 625T428 698T323 721Q282 721 247 697T212 637Q212 599 238 574T299 533T395 495T521 442T629 353T671 214Z" />
<glyph unicode="T" glyph-name="T" horiz-adv-x="802" d="M6 729H796V408H779Q752 469 715 537T636 657T564 708L524 710V127L526 81Q529 49 539 37T572 22T612 18T644 16V0H155V16L221 19Q251 22 262 34T276 79L278 125V710L239 708Q207 708 168 661T90 541T23
408H6V729Z" />
<glyph unicode="U" glyph-name="U" horiz-adv-x="853" d="M869 713Q856 712 840 711T796 706T754 682T736 630L734 582V285L732 235Q717 97 657 43T471 -12Q305 -12 215 51T125 208V602L123 648Q120 680 110 692T68 709L26 713V729H494V713Q481 712 465 712T422
708T386 693T373 648L371 602V201Q371 189 372 172T378 120T418 50T513 15Q597 15 639 57T696 155T712 249L713 296V586L711 634Q708 667 695 684T654 705T609 711T575 713V729H869V713Z" />
<glyph unicode="V" glyph-name="V" horiz-adv-x="745" d="M792 713Q783 712 771 712T734 707T690 690T658 644L628 567L427 -4H324L120 569L89 647Q74 679 60 692T20 709L-21 713V729H442V713L398 709Q376 705 363 700T349 669Q349 651 363 607T407 485T494 253Q529
347 565 447T614 592T627 659Q627 684 615 694T587 707T556 711T527 713V729H792V713Z" />
<glyph unicode="W" glyph-name="W" horiz-adv-x="1186" d="M583 541L542 647Q528 676 519 690T478 709L447 713V729H887V713H873Q866 713 847 710T815 701T802 671Q802 648 815 607T847 516T894 385T936 269Q949 303 967 351T1018 486T1061 606T1071 663Q1071
686 1059 696T1030 708T998 711T970 713V729H1227V713L1183 708Q1151 703 1133 690T1101 644L1071 567L857 -4H777L595 512L404 -4H324L120 569L89 647Q74 679 62 692T24 709L-11 713V729H421V713L389 710Q366 707 357 701T347 676Q347 654 363 606T405 488T450
366T483 278L583 541Z" />
<glyph unicode="X" glyph-name="X" horiz-adv-x="764" d="M298 306L103 619Q70 671 50 688T-2 710L-33 713V729H427V713L385 711Q364 709 355 705T346 686Q346 675 350 665T367 632L451 492Q481 529 509 565T557 631T578 680Q578 708 553 710T516 712T494 713V729H750V713L713
711Q678 706 656 695T604 650T535 568T461 476Q529 365 589 269T687 114T743 40T794 19L827 16V0H365V16L407 18Q444 22 444 47Q444 66 425 98L307 291Q250 219 213 171T157 95T138 50Q138 24 162 21T203 18T229 16V0H-44V16Q-33 16 -19 16T15 19T58 33T117 85T209
196T298 306Z" />
<glyph unicode="Y" glyph-name="Y" horiz-adv-x="744" d="M524 127L526 81Q529 49 539 37T571 22T611 18T642 16V0H155V16L221 19Q251 22 262 34T276 79L278 125V311L89 619Q55 672 36 689T-16 710L-44 713V729H423V713L371 711Q350 709 341 705T332 686Q332 675
336 665T356 627T417 526T505 387Q539 446 579 514T638 619T658 679Q658 706 614 711L574 713V729H812V713L786 711Q752 711 729 698T681 647T612 531T524 376V127Z" />
<glyph unicode="Z" glyph-name="Z" horiz-adv-x="834" d="M310 20Q349 21 380 21T454 23Q526 23 617 132T761 347H777V0H10V11L499 705V710L384 707Q308 707 218 604T73 395H57V729H800V718L310 25V20Z" />
<glyph unicode="[" glyph-name="bracketleft" horiz-adv-x="460" d="M454 -125Q454 -159 429 -180Q425 -184 420 -181T418 -171Q428 -158 428 -141Q428 -115 390 -106T306 -96Q242 -96 176 -103T57 -125V734Q109 720 174 713T306 705Q354 705 391 714T428 750Q428
767 418 780Q414 785 419 789T429 793Q454 768 454 734Q454 675 416 648T325 620Q254 620 187 653T82 706V-97Q130 -72 192 -42T325 -11Q378 -11 416 -38T454 -125Z" />
<glyph unicode="\" glyph-name="backslash" horiz-adv-x="361" d="M395 -101L350 -116L-19 754L26 770L395 -101Z" />
<glyph unicode="]" glyph-name="bracketright" horiz-adv-x="460" d="M404 -125Q352 -111 287 -104T155 -96Q107 -96 70 -105T33 -141Q33 -158 43 -171Q47 -176 42 -180T32 -184Q7 -159 7 -125Q7 -66 45 -39T136 -11Q207 -11 274 -44T379 -97V706Q331 681 269
651T136 620Q83 620 45 647T7 734Q7 771 32 789Q37 793 42 793Q47 793 43 780Q38 774 36 767T33 750Q33 724 71 715T155 705Q219 705 285 712T404 734V-125Z" />
<glyph unicode="^" glyph-name="asciicircum" horiz-adv-x="833" d="M420 609H415L231 234L155 266L380 729H454L679 266L603 234L420 609Z" />
<glyph unicode="_" glyph-name="underscore" horiz-adv-x="500" d="M500 -83V-164H0V-83H500Z" />
<glyph unicode="`" glyph-name="grave" horiz-adv-x="500" d="M323 532L315 521Q281 541 236 560T150 596T94 627T80 672Q80 682 82 691T87 705T106 715T140 721Q169 721 228 644T323 532Z" />
<glyph unicode="a" glyph-name="a" horiz-adv-x="575" d="M530 50Q554 50 563 79T573 150H587Q587 62 556 34T499 -1T435 -9Q392 -9 359 13T318 72Q302 31 265 11T167 -10Q103 -10 63 25T23 122Q23 172 48 202T99 240T179 252T258 263T295 277T306 303L305 394Q305
433 295 450T253 467Q233 467 220 458T206 435Q206 424 227 408T249 358Q249 327 222 303T132 279Q98 279 73 297T47 347Q47 409 116 446T282 483Q363 483 431 450T499 346V117Q499 85 505 68Q510 50 530 50ZM306 79V270L303 271Q294 259 270 249T236 228T221 190T215
131Q215 86 222 59T254 32Q273 32 287 47T306 79Z" />
<glyph unicode="b" glyph-name="b" horiz-adv-x="616" d="M601 239Q601 126 525 58T332 -10Q255 -10 212 22T141 86H135Q121 72 106 47T76 -3H64Q65 37 65 72T67 158V619L66 660Q66 687 58 697T21 711L-17 713V729H259V503L257 424Q268 444 292 464T385 484Q480
484 540 417T601 239ZM399 238Q399 252 397 291T395 340Q395 393 379 425T327 458Q296 458 282 441T264 401T259 336T258 251V184Q258 157 261 128Q261 75 277 41T328 6Q361 6 378 42T395 130Q395 150 396 177T399 238Z" />
<glyph unicode="c" glyph-name="c" horiz-adv-x="533" d="M314 468Q286 468 267 446T238 392T223 323T218 250Q218 159 248 92T356 24Q411 24 452 58T514 146L529 138Q462 -10 289 -10Q175 -10 95 57T15 236Q15 348 93 416T289 484Q333 484 370 475T439 449T501
402T531 330Q531 293 508 271T440 248Q401 248 370 275T338 338Q338 365 349 390T360 432Q360 448 348 458T314 468Z" />
<glyph unicode="d" glyph-name="d" horiz-adv-x="621" d="M354 405Q350 430 332 443T290 456Q259 456 244 427T224 360T218 292T217 235V190Q217 171 221 124T241 47T289 17Q344 17 353 70Q355 93 356 151T357 239V331Q357 373 354 405ZM357 477V605L355 651Q355
684 345 695T302 710L255 713V729H549V110L550 69Q550 42 559 32T596 18L628 16V0H359V50Q348 30 324 10T231 -10Q135 -10 75 57T15 239Q15 350 75 417T231 484Q301 484 324 465T358 425L357 477Z" />
<glyph unicode="e" glyph-name="e" horiz-adv-x="530" d="M521 150Q493 75 431 33T285 -10Q167 -10 91 55T15 237Q15 345 93 414T282 484Q397 484 458 419T519 260H212Q212 224 217 187T238 114T282 58T354 36Q415 36 450 70T505 157L521 150ZM345 280Q344 291
344 306T343 344Q343 405 328 436T276 468Q244 468 232 438T214 344L212 280H345Z" />
<glyph unicode="f" glyph-name="f" horiz-adv-x="360" d="M329 620Q329 646 349 667T369 698Q369 710 361 716T335 722Q300 722 285 682T269 579L267 474H381L364 436H267V125L268 79Q268 43 274 32T309 17L345 16V0H9V16L33 17Q62 20 68 31T74 79L75 125V436H2L18
474H75Q75 494 76 516T78 549Q78 620 159 679T344 739Q412 739 463 711T515 626Q515 590 486 566T420 541Q384 541 357 562T329 620Z" />
<glyph unicode="g" glyph-name="g" horiz-adv-x="540" d="M118 -81Q90 -85 78 -97T65 -134Q65 -174 123 -194T258 -215Q353 -215 411 -194T469 -127Q469 -99 443 -90T369 -81H118ZM291 314L288 387Q288 424 278 446T243 468Q220 468 210 446T199 387L196 314L199
241Q199 206 210 184T244 161Q267 161 277 183T288 241L291 314ZM392 429Q403 454 426 469T482 484Q517 484 538 466T559 417Q559 393 543 377T501 361Q477 361 461 374T444 414Q444 428 453 440T463 459Q463 463 455 463Q442 463 426 453T400 421Q418 402 428
374T438 314Q438 238 380 192T244 145Q196 145 150 164Q129 166 110 157T91 128Q91 114 106 107Q120 99 138 99H351Q433 99 482 52T531 -66Q531 -153 449 -194T255 -235Q164 -235 96 -213T27 -136Q27 -110 47 -95T99 -73Q59 -50 37 -22T14 48Q14 98 47 133T126
175Q89 199 69 233T48 313Q48 390 105 437T244 484Q335 484 392 429Z" />
<glyph unicode="h" glyph-name="h" horiz-adv-x="649" d="M259 400Q278 440 312 462T409 484Q478 484 531 447T584 350V125L585 79Q585 43 591 32T626 17L648 16V0H339V16L352 17Q379 17 385 29T391 79L392 125V329L391 370Q391 412 377 430T335 448Q301 448 287
426T263 381V125L264 79Q264 40 269 29T303 17L316 16V0H6V16L29 17Q58 20 64 31T70 79L71 125V619L70 660Q70 687 62 697T25 711L-13 713V729H263V492Q263 459 262 437T259 400Z" />
<glyph unicode="i" glyph-name="i" horiz-adv-x="340" d="M332 0H8V16L32 17Q61 20 67 31T73 79L74 125V364L73 405Q71 429 67 441T31 456L4 458V474H266V125L267 79Q267 43 273 32T308 17L332 16V0ZM72 641Q72 680 100 707T169 735Q210 735 238 709T267 641Q267
601 239 574T169 546Q129 546 101 573T72 641Z" />
<glyph unicode="j" glyph-name="j" horiz-adv-x="330" d="M270 641Q270 601 242 574T172 546Q132 546 104 573T75 641Q75 680 103 707T172 735Q213 735 241 709T270 641ZM271 54Q271 32 270 8T268 -21Q268 -96 190 -163T12 -231Q-58 -231 -104 -206T-150 -124Q-150
-88 -123 -64T-59 -39Q-24 -39 2 -61T29 -118Q29 -145 11 -165T-8 -196Q-8 -204 -1 -208T22 -213Q53 -213 65 -177T78 -82L79 23V364L78 405Q76 429 72 441T36 456L-1 458V474H271V54Z" />
<glyph unicode="k" glyph-name="k" horiz-adv-x="628" d="M261 214Q314 268 367 323T440 403T461 441Q461 449 455 452T436 457L402 459V474H590V459Q580 459 571 459T545 455T517 445T485 419T448 384T419 354Q468 274 519 192T593 74T628 29T660 17L684 16V0H345V16L365
17Q391 17 391 33Q391 43 378 66T336 133T282 217L263 197V125L264 79Q264 40 269 29T303 17L322 16V0H6V16L29 17Q58 20 64 31T70 79L71 125V619L70 660Q70 687 62 697T25 711L-13 713V729H263V280L261 214Z" />
<glyph unicode="l" glyph-name="l" horiz-adv-x="337" d="M332 0H8V16L32 17Q61 20 67 31T73 79L74 125V619L73 660Q71 684 67 696T31 711L-3 713V729H266V125L267 79Q267 43 273 32T308 17L332 16V0Z" />
<glyph unicode="m" glyph-name="m" horiz-adv-x="946" d="M942 0H641V16Q676 16 682 27T689 79L690 125V327L689 368Q689 411 679 430T641 449Q623 449 603 433T575 368V125L576 79Q576 47 579 33T618 16V0H334V16Q368 16 375 27T382 79L383 125V327L382 368Q382
411 372 430T334 449Q300 449 288 427T268 382V125L269 79Q269 47 272 33T311 16V0H12V16L34 17Q63 20 69 31T75 79L76 125V364L75 405Q73 429 69 441T33 456L10 458V474H264V399Q273 427 299 455T407 484Q463 484 504 461T566 390Q571 408 592 446T714 484Q782
484 832 446T882 348V125L883 79Q883 41 888 31T924 17L942 16V0Z" />
<glyph unicode="n" glyph-name="n" horiz-adv-x="653" d="M396 329L395 370Q395 448 340 448Q305 448 291 426T267 381V125L268 79Q268 38 275 27T320 16V0H9V16L33 17Q62 20 68 31T74 79L75 125V364L74 405Q72 429 68 441T32 456L9 458V474H263V399Q274 427 302
455T413 484Q484 484 536 444T588 350V125L589 79Q589 43 595 32T630 17L652 16V0H343V16Q379 16 387 27T395 79L396 125V329Z" />
<glyph unicode="o" glyph-name="o" horiz-adv-x="570" d="M555 237Q555 131 475 61T285 -10Q170 -10 93 60T15 237Q15 343 93 413T285 484Q396 484 475 414T555 237ZM356 238Q356 252 354 294T352 344Q352 398 336 433T284 468Q252 468 235 432T218 344Q218 325
217 298T214 238Q214 224 216 181T218 130Q218 76 234 41T285 6Q318 6 335 42T352 130Q352 150 353 177T356 238Z" />
<glyph unicode="p" glyph-name="p" horiz-adv-x="619" d="M265 69Q269 44 287 31T329 18Q360 18 375 48T395 114T400 178T402 239V304Q399 333 396 364T376 425T327 455Q307 455 289 438T266 395Q264 371 263 333T262 256V146Q262 100 265 69ZM-11 -231V-215L24
-213Q53 -210 61 -201T69 -162L70 -121V364L69 405Q69 433 61 443T23 456L-9 458V474H260V415Q271 438 295 461T388 484Q484 484 544 417T604 235Q604 124 544 57T388 -10Q318 -10 295 9T261 49L262 -10V-105L264 -151Q267 -185 277 -196T319 -212L367 -215V-231H-11Z"
/>
<glyph unicode="q" glyph-name="q" horiz-adv-x="611" d="M551 479L549 349V-121L550 -162Q550 -189 558 -199T595 -213L623 -215V-231H266V-215Q276 -215 289 -215T321 -212T348 -201T356 -162L357 -121V49Q347 29 324 10T231 -10Q136 -10 76 57T15 235Q15 348
91 416T284 484Q359 484 400 456T469 397L541 479H551ZM357 238V327Q355 339 355 344Q355 401 340 434T287 468Q255 468 238 432T221 344Q221 325 220 298T217 238Q217 224 219 181T221 130Q221 81 238 49T289 16Q319 16 334 34T351 71T355 156T357 238Z" />
<glyph unicode="r" glyph-name="r" horiz-adv-x="512" d="M6 0V16L33 17Q62 20 68 31T74 79L75 125V364L74 405Q72 429 68 441T32 456L6 458V474H265V390Q272 408 295 444T400 480Q448 480 481 447T515 367Q515 321 484 291T406 260Q368 260 341 286T313 347Q313
372 322 393Q332 412 342 432Q337 439 332 439Q306 439 287 408T267 350V119L268 69Q268 41 275 31T310 18L340 16V0H6Z" />
<glyph unicode="s" glyph-name="s" horiz-adv-x="484" d="M44 207H57Q83 126 109 88T165 31T240 12Q265 12 283 25T301 63Q301 94 287 109T243 141T174 180T108 222T67 269T52 329Q52 403 108 443T245 484Q283 484 317 470Q350 453 384 437Q398 437 408 454T418
494H432V293H419Q411 317 399 346T365 404T317 450T253 466Q225 466 208 453T190 419Q190 396 202 383T239 356T304 319T379 274T434 220T456 145Q456 68 398 29T256 -10Q213 -10 172 8Q132 28 93 49Q80 49 70 28T58 -17H44V207Z" />
<glyph unicode="t" glyph-name="t" horiz-adv-x="403" d="M66 436H-2V463Q32 472 69 496T139 553T195 617T230 673H258V474H389L375 436H258V164L260 113Q260 70 279 48T327 26Q366 26 384 58T402 131H416Q416 75 383 33T241 -10Q172 -10 119 26T66 127V436Z" />
<glyph unicode="u" glyph-name="u" horiz-adv-x="652" d="M652 0H390V64Q367 28 334 9T241 -10Q172 -10 119 31Q65 71 65 142V364L64 405Q64 432 56 442T19 456L-9 458V474H257V147L258 106Q258 65 272 45T316 24Q348 24 362 42T386 79V349L384 395Q384 428 373
440T329 456L298 458V474H578V110L579 69Q579 42 587 32T624 18L652 16V0Z" />
<glyph unicode="v" glyph-name="v" horiz-adv-x="505" d="M312 458Q306 458 300 458T279 455T263 431Q263 420 265 412T272 392L348 190L419 374Q431 409 431 429Q431 443 424 448T402 456L370 458V474H537V458L500 454Q484 451 471 436T444 385T390 244T328 84T295
-4H224Q207 39 182 104T119 267T67 399T47 442T27 454T3 457T-13 458V474H312V458Z" />
<glyph unicode="w" glyph-name="w" horiz-adv-x="811" d="M406 348L385 406Q377 426 370 439T348 456L326 458V474H632V458H617Q609 458 595 455T581 431Q581 424 582 417T592 380T623 289T657 194L726 374Q739 413 739 430Q739 445 732 449T713 455T693 457T676
458V474H843V458L807 454Q777 449 751 385L603 -4H531L415 324L286 -4H215Q200 39 184 84T127 246T72 399T52 443T34 454T11 457T-11 458V474H304V458H297Q293 458 280 455T266 431Q266 424 267 417T276 386T303 305T343 192L406 348Z" />
<glyph unicode="x" glyph-name="x" horiz-adv-x="541" d="M201 197L82 398Q61 432 49 443T16 457L-12 459V474H325V459L298 458Q284 457 278 454T272 440Q272 435 273 429T284 406L334 319L398 401Q415 426 415 439Q415 458 390 458L367 459V474H533V459H522Q515
459 501 457T473 449T431 409L344 303L479 77Q501 41 512 31T545 18L566 16V0H235V16L262 17Q287 20 287 37Q287 47 276 69L211 181L128 74Q111 49 111 37Q111 20 136 17L163 16V0H-15V16L16 17Q43 21 58 31T90 61T140 121T201 197Z" />
<glyph unicode="y" glyph-name="y" horiz-adv-x="503" d="M61 406Q49 431 41 441T20 455L-19 458V474H308V458H293Q285 458 273 456T260 435Q260 427 264 415T272 390L350 204Q360 228 382 282T417 375T430 430Q430 443 426 448T401 456L369 458V474H536V458Q530
458 524 458T500 454T470 436T426 338T356 162T272 -31T185 -181T76 -231Q36 -231 3 -204T-31 -134Q-31 -94 -4 -66T65 -38Q108 -38 132 -63T156 -122Q156 -156 137 -177T118 -202Q127 -201 137 -200Q159 -190 179 -162T216 -104T250 -33Q228 19 196 95T124 264T61
406Z" />
<glyph unicode="z" glyph-name="z" horiz-adv-x="542" d="M298 20Q346 20 404 89T495 226H508V0H1V9L303 453L249 455Q200 455 142 390T49 257H36V474H522V465L221 21L298 20Z" />
<glyph unicode="{" glyph-name="braceleft" horiz-adv-x="380" d="M105 271V264Q164 257 207 222T251 106Q251 82 241 31T231 -36Q231 -117 266 -147T371 -178V-196Q235 -196 172 -156T108 -35Q108 10 136 75T164 170Q164 212 140 235T32 258V276Q115 276 139
299T164 366Q164 398 136 462T108 569Q108 672 189 701T371 730V712Q302 712 267 682T231 570Q231 551 241 500T251 428Q251 349 207 313T105 271Z" />
<glyph unicode="|" glyph-name="bar" horiz-adv-x="445" d="M183 754H262V-246H183V754Z" />
<glyph unicode="}" glyph-name="braceright" horiz-adv-x="380" d="M349 258Q266 258 242 236T217 170Q217 138 245 76T273 -35Q273 -137 192 -166T10 -196V-178Q79 -178 114 -148T150 -36Q150 -16 140 35T130 106Q130 185 174 221T276 264V271Q217 277 174 312T130
428Q130 452 140 504T150 570Q150 653 115 682T10 712V730Q113 730 193 702T273 569Q273 525 245 461T217 366Q217 321 241 299T349 276V258Z" />
<glyph unicode="~" glyph-name="asciitilde" horiz-adv-x="833" d="M710 443Q710 352 667 289T544 226Q514 226 490 235T438 263L359 320Q340 335 322 343T284 351Q241 351 218 312T195 214H122Q122 298 165 364T288 430Q315 430 342 420T384 400T433 365T479
332T511 314T548 305Q591 305 614 343T637 443H710Z" />
</font>
</defs>
</svg>
